<svg width="528" height="437" viewBox="0 0 528 437" fill="none" xmlns="http://www.w3.org/2000/svg">
<path fill-rule="evenodd" clip-rule="evenodd" d="M142.66 209.782C145.409 230.404 148.159 251.025 150.908 271.647L153.129 288.3C153.409 290.401 153.144 294.546 154.212 296.428C154.589 297.091 155.581 297.406 156.31 297.797C158.818 299.144 161.328 300.491 163.836 301.839C185.059 313.233 206.283 324.627 227.504 336.021C247.872 346.956 268.24 357.892 288.607 368.826C290.715 369.959 294.124 372.911 296.4 372.133C298.563 371.394 300.773 369.57 302.736 368.42C306.506 366.211 310.275 364.002 314.044 361.793C336.853 348.426 359.66 335.059 382.469 321.693C391.879 316.178 401.289 310.663 410.699 305.148C413.274 303.639 415.849 302.131 418.424 300.621C419.77 299.832 419.945 299.86 420.475 298.52C422.457 293.513 423.375 287.776 424.777 282.58C426.322 276.854 427.867 271.128 429.413 265.402C430.101 262.847 429.778 262.517 428.654 260.051C426.43 255.169 424.207 250.287 421.983 245.406C417.047 234.571 412.112 223.737 407.176 212.902C405.18 208.521 400.372 205.438 396.911 202.215L343.168 152.18C341.803 150.909 340.438 149.638 339.073 148.367C338.848 156.005 337.339 164.217 339.553 171.596C343.186 183.706 346.819 195.816 350.452 207.926C352.208 213.779 353.963 219.632 355.719 225.485C356.046 226.573 358.032 230.885 357.501 231.842C357.207 232.372 354.698 232.909 354.154 233.115C351.82 234.003 349.486 234.891 347.151 235.779C340.647 238.254 334.142 240.729 327.638 243.203C321.788 245.429 315.938 247.654 310.088 249.879C308.104 250.634 305.774 252.032 303.679 251.915C301.805 251.811 299.674 250.884 297.86 250.417C294.672 249.596 291.483 248.774 288.295 247.952C282.031 246.339 275.768 244.726 269.504 243.113C262.458 241.298 256.507 235.967 250.481 232.021C240.122 225.239 229.764 218.456 219.406 211.674C217.035 210.122 217.026 209.236 216.081 206.401C213.958 200.03 211.834 193.659 209.71 187.288C208.576 183.886 207.182 180.47 206.325 176.988C204.913 171.24 204.075 165.29 202.956 159.479C202.619 157.726 202.281 155.972 201.944 154.219C197.606 155.979 193.268 157.74 188.93 159.5C188.301 159.755 185.237 160.516 184.965 161.141C184.792 161.536 185.704 163.33 185.834 163.715C189.431 174.368 193.028 185.021 196.625 195.673C197.757 199.025 198.888 202.375 200.019 205.726C197.316 201.478 194.612 197.229 191.908 192.98C189.784 200.125 187.659 207.272 185.535 214.417C180.514 208.623 175.492 202.829 170.47 197.036C168.732 202.829 166.994 208.623 165.256 214.417C159.848 207.272 154.441 200.125 149.033 192.98C148.39 196.709 147.747 200.438 147.104 204.167C146.91 205.292 146.949 208.521 146.2 209.413C145.583 210.146 143.806 209.782 142.66 209.782Z" fill="black"/>
<path fill-rule="evenodd" clip-rule="evenodd" d="M485.041 254.358C484.737 264.065 484.948 276.666 479.635 285.201C478.778 286.578 475.873 290.869 475.549 287.094C475.231 283.388 476.143 279.719 475.239 275.97C474.756 273.964 473.131 269.583 470.353 271.394C468.937 272.318 468.564 274.598 468.01 276.037C467.191 278.166 466.273 280.262 465.411 282.375C462.398 289.751 459.276 298.554 452.579 303.435C453.456 297.075 455.844 290.283 454.238 283.854C453.691 281.662 452.033 277.661 449.178 278.945C446.396 280.196 444.593 285.778 443.28 288.263C439.299 295.8 435.228 303.194 430.746 310.448C428.492 314.097 426.057 317.432 423.108 320.553C421.263 322.506 418.964 325.806 416.057 326.096C416.057 320.533 417.888 315.157 419.559 309.918C421.357 304.284 422.996 298.601 424.761 292.957C426.292 288.061 427.549 283.202 428.568 278.181C428.99 276.104 429.324 273.954 431.094 272.613C432.685 271.408 435.198 270.834 436.972 269.948C441.631 267.621 446.422 265.11 450.749 262.217C452.526 261.029 454.056 259.495 455.916 258.429C458.036 257.216 460.015 256.194 461.977 254.715C470.439 248.332 478.068 240.48 483.208 231.133C484.043 234.888 485.148 238.558 485.27 242.428C485.395 246.397 485.166 250.391 485.041 254.358ZM415.393 298.976C414.04 296.69 411.978 297.626 410.161 298.728C407.341 300.438 404.514 302.136 401.681 303.824C395.914 307.26 390.254 310.875 384.62 314.523C373.151 321.947 361.282 328.023 349.191 334.307C337.505 340.38 326.28 347.606 315.331 354.911C312.699 356.667 310.086 358.463 307.559 360.367C305.317 362.057 303.523 364.431 301.162 365.935C298.703 367.502 297.013 366.231 294.661 365.076C291.72 363.631 288.655 362.42 285.649 361.117C273.517 355.857 261.35 350.397 249.549 344.427C237.818 338.494 226.704 331.657 215.464 324.868C210.111 321.634 204.85 318.195 199.57 314.843C193.951 311.276 188.133 308.604 182.239 305.57C179.631 304.228 177.321 302.406 174.643 301.186C171.827 299.903 168.852 298.983 166.331 297.133C165.2 296.304 164.247 295.312 162.955 294.725C161.894 294.244 160.69 294.163 159.642 293.651C157.511 292.611 156.901 290.499 156.489 288.302C153.834 274.202 152.424 259.711 150.885 245.453C150.021 237.435 149.056 229.449 147.861 221.474C147.323 217.878 148.406 215.092 148.975 211.594C149.639 207.509 149.902 203.338 150.346 199.225C152.446 203.115 154.262 207.197 156.934 210.747C158.903 213.363 162.267 217.073 165.893 216.986C171.53 216.85 171.272 207.182 171.499 203.345C174.066 205.637 174.845 209.37 176.976 212.031C178.921 214.461 181.569 217.476 184.557 218.565C190.848 220.856 190.243 209.178 189.897 205.867C189.723 204.206 188.785 201.577 191.01 202.335C193.06 203.032 195.054 205.924 196.777 207.25C199.754 209.543 203.02 211.449 206.075 213.638C209.864 216.354 213.954 218.317 217.818 220.847C220.234 222.429 222.87 222.784 225.505 223.948C229.365 225.653 232.775 228.194 236.448 230.238C243.724 234.284 251.795 237.912 259.753 240.351C262.328 241.14 265.759 243.365 267.712 241.079C268.915 239.672 269.705 237.523 270.726 235.946C272.017 233.95 273.389 232.006 274.813 230.101C279.876 223.334 285.494 216.943 291.733 211.235C298.992 204.594 306.93 198.618 315.421 193.641C319.068 191.503 334.3 181.918 337.649 188.664C334.897 188.492 332.513 189.499 330.16 190.759C329.585 191.067 326.624 193.181 327.317 191.318C326.457 191.479 325.702 192.6 325.051 193.099C323.925 193.961 322.218 194.957 320.914 195.671C319.626 196.376 318.034 196.548 316.859 197.403C316.43 197.716 316.17 198.222 315.761 198.56L314.589 198.569C314.413 199.219 314.237 199.868 314.062 200.517C313.399 198.392 312.453 201.156 311.346 202.053C310.681 202.592 309.627 203.148 308.843 203.496C308.257 203.756 308.167 203.152 307.598 203.612C307.092 204.02 306.77 204.92 306.227 205.432C305.56 206.059 304.706 206.546 303.963 207.082C302.539 208.107 301.033 208.912 299.59 209.885C297.649 211.193 296.631 213.443 294.747 214.811C293.854 215.458 292.467 215.534 291.984 215.949C290.773 216.991 291.172 218.569 288.912 218.639C289.118 218.968 289.241 219.325 289.284 219.71C288.745 219.617 288.267 219.394 287.848 219.04C287.942 221.294 285.726 222.099 284.397 223.486C283.631 224.286 282.677 225.411 282.137 226.373C282.047 226.534 281.876 227.819 281.838 227.836C281.633 227.934 280.385 226.838 280.503 226.929C280.155 229.012 278.14 230.98 277.257 232.908C276.793 233.924 276.32 235.556 275.404 236.271C275.155 236.465 274.389 236.262 273.755 236.937C273.291 237.432 272.755 238.347 272.566 239.003C272.44 239.442 272.591 240.576 272.411 240.839C272.079 241.32 271.564 240.837 271.044 241.193C270.085 241.85 270.061 242.876 268.657 243.011C269.624 245.362 275.467 246.087 277.59 246.756C283.596 248.646 289.896 250.534 295.51 253.428C296.962 254.177 298.335 254.794 298.593 256.519C298.951 258.918 297.728 262.11 297.495 264.534C296.863 271.08 296.733 277.82 296.866 284.394C296.991 290.622 297.192 296.907 297.483 303.127C297.751 308.894 298.914 314.546 299.542 320.272C299.714 321.844 299.599 328.931 302.301 328.575C304.558 328.277 303.133 323.436 303.091 322.048C302.996 318.977 303.643 315.841 303.615 312.743C303.603 311.253 304.254 309.97 304.317 308.544C304.379 307.136 303.679 306.023 303.888 304.563C304.09 303.162 308.231 295.104 304.254 296.048C304.487 294.896 304.691 293.734 304.998 292.599C305.424 292.981 305.767 293.428 306.025 293.938C306.379 291.463 306.261 288.992 306.481 286.516C306.579 285.394 307.034 284.165 306.879 283.034C306.908 282.565 306.848 282.105 306.7 281.654C306.456 281.395 306.153 281.259 305.793 281.246C305.603 280.626 305.555 280.456 305.891 279.848C306.035 279.436 306.321 279.179 306.749 279.077C307.565 278.98 307.658 278.512 307.029 277.671C307.357 276.012 307.399 274.964 307.162 273.308C306.963 271.917 307.696 269.224 306.949 267.985C306.077 266.537 305.644 267.941 305.482 265.934C305.447 265.51 305.419 264.624 305.59 264.201C305.777 263.74 306.34 263.928 306.412 263.764C306.9 262.649 306.932 260.453 305.204 260.644C305.272 259.847 305.34 259.051 305.407 258.254C306.655 259.691 306.219 258.475 306.927 257.676C307.881 256.599 308.814 256.414 310.177 255.988C313.81 254.855 317.311 253.149 320.862 251.766C328.38 248.836 336.038 246.22 343.336 242.758C358.685 235.474 373.73 227.569 389.174 220.478C388.071 218.431 388.757 218.331 389.563 216.409C390.64 217.156 390.413 216.635 391.179 216.589C391.11 215.947 391.309 215.754 391.777 216.008C392.15 216.122 392.532 216.163 392.923 216.129C393.879 216.293 394.66 216.819 395.529 217.019C395.814 217.23 396.128 217.387 396.47 217.493C396.777 217.423 397.039 217.271 397.255 217.037C398.662 217.298 399.136 218.358 399.198 219.892C399.208 220.159 398.391 220.432 398.626 220.791C399.034 221.418 400.134 221.269 400.763 221.349C400.625 222 400.487 222.65 400.35 223.301C403.111 222.027 402.39 226.015 403.228 227.325C403.461 227.691 403.981 227.398 404.251 227.822C404.604 228.375 404.498 229.158 404.798 229.708C405.478 230.953 406.158 230.802 406.836 232.228C410.375 239.672 415.084 246.608 418.481 254.213C420.099 257.832 421.558 261.514 423.247 265.101C424.801 268.403 425.689 271.21 424.581 274.816C422.012 283.18 419.265 291.697 415.898 299.777C415.73 299.51 415.562 299.243 415.393 298.976ZM236.192 361.412C235.951 361.822 235.71 362.232 235.469 362.643C234.933 359.564 236.36 360.992 236.192 361.412ZM224.86 355.646C224.088 355.415 224.422 354.153 224.446 353.614C224.935 354.223 225.414 354.843 225.821 355.512C225.5 355.557 225.18 355.601 224.86 355.646ZM193.803 343.808C194.614 343.353 195.198 343.026 196.117 342.511C195.183 344.332 195.183 344.332 193.803 343.808ZM144.944 183.353C143.704 186.395 147.483 205.177 143.965 205.79C143.46 204.141 143.397 199.602 141.309 199.061C138.717 198.388 138.972 203.061 138.618 204.506C133.298 200.804 130.935 193.655 128.393 187.99C125.153 180.769 122.604 173.259 120.169 165.735C118.087 159.302 116.366 152.755 114.262 146.333C112.94 142.299 111.516 138.255 110.627 134.098C110.434 133.194 109.674 130.904 110.32 130.045C111.258 128.797 114.635 130.227 115.723 130.555C122.781 132.679 130.104 133.593 137.356 134.827C145.414 136.197 153.453 137.614 161.559 138.677C163.585 138.942 165.612 139.193 167.64 139.438C168.955 139.597 170.946 139.438 172.195 140.028C174.723 141.221 175.261 145.786 176.201 148.155C179.704 156.992 183.828 165.549 187.517 174.306C190.84 182.194 193.359 190.587 198.136 197.77C194.574 196.19 190.058 187.84 186.077 192.653C184.366 194.723 184.798 197.449 184.934 199.926C185.133 203.507 185.194 207.114 185.194 210.7C181.299 209.688 178.681 205.266 176.636 202.133C173.842 197.854 172.082 193.822 170.845 188.917C170.309 186.793 168.889 186.74 167.626 185.469C166.815 184.652 166.407 183.551 165.244 184.74C163.781 186.233 164.754 190.37 165.007 192.133C165.606 196.33 167.573 202.788 165.662 206.732C163.081 212.053 156.166 198.663 155.356 196.729C154.944 195.745 147.587 176.865 144.944 183.353ZM140.113 92.1515C140.548 92.2181 140.984 92.2847 141.419 92.3514C141.068 92.6614 140.338 93.7483 139.741 93.4609C139.865 93.0246 139.989 92.5883 140.113 92.1515ZM163.19 87.1994C163.054 87.3495 162.916 87.499 162.78 87.649C162.155 86.868 162.376 85.7295 162.376 84.8263C163.202 85.3251 163.404 86.3228 163.19 87.1994ZM165.055 95.8648V98.4176C163.325 97.6679 163.291 97.2808 165.055 95.8648ZM167.156 99.1105C165.944 98.778 165.799 98.5097 165.969 96.647C166.472 97.6905 166.802 98.3782 167.156 99.1105ZM174.133 118.016C173.625 119.323 170.655 116.208 170.764 115.276C170.868 114.387 171.324 114.121 171.953 114.693C172.161 114.883 171.852 115.567 171.985 115.804C172.464 116.664 173.43 117.368 174.133 118.016ZM174.166 125.891C173.422 127.749 172.096 124.823 174.039 124.743C174.167 125.117 174.209 125.499 174.166 125.891ZM172.723 122.962C172.435 122.578 172.155 122.189 171.883 121.793C172.884 121.995 173.679 123.454 174.735 122.48C174.61 123.965 173.556 124.006 172.723 122.962ZM107.979 98.8342C106.368 97.0769 116.868 95.8434 118.134 95.5415C127.326 93.3497 136.004 90.1781 144.598 86.2863C148.698 84.43 152.776 82.551 156.78 80.493C158.509 79.6048 160.879 78.8516 162.322 77.5178C163.353 76.5659 163.312 75.8457 164.652 75.2785C165.789 74.7982 165.846 75.2518 166.367 74.3828C166.68 73.8613 167.034 71.9505 166.85 71.385C166.352 69.8421 165.614 71.093 164.579 70.0298C163.833 69.2633 164.014 67.0836 164.217 66.1809C164.481 66.6108 164.633 67.0778 164.674 67.5807C165.797 67.0268 165.344 65.1247 166.573 64.813C167.868 64.485 167.734 65.4938 168.072 66.5251C169.05 65.0882 168.266 63.8628 167.736 62.4595C170.429 61.9554 173.322 61.467 175.99 62.3627C177.92 63.0099 179.572 64.6015 181.61 64.9091C183.605 65.2099 183.989 64.2637 185.46 63.3037C186.654 62.5244 187.679 63.4421 188.294 62.8535C187.915 64.8408 184.657 64.569 185.058 67.0523C185.239 68.17 186.609 69.174 187.232 70.0437C188.015 71.1353 188.639 72.3421 189.172 73.5722C191.246 78.3568 192.132 83.9091 193.002 89.0257C195.15 101.655 195.421 114.534 197.441 127.204C198.403 133.239 199.368 139.277 199.868 145.371C199.993 146.895 200.924 150.351 200.162 151.817C199.519 153.055 198.087 153.058 196.829 153.358C194.369 153.942 192.059 154.737 189.699 155.617C187.584 156.405 186.969 156.889 185.611 154.899C184.298 152.973 183.648 150.677 182.708 148.566C181.511 145.876 180.065 143.28 178.677 140.685C181.404 140.685 182.974 139.213 182.901 136.442C182.822 133.372 180.298 132.644 179.257 130.121C178.245 131.436 178.16 131.473 177.439 130.225C176.614 128.798 176.057 126.187 175.552 124.568C175.913 124.953 176.274 125.338 176.635 125.723C177.545 124.47 176.12 122.496 175.643 121.316C174.907 119.495 174.777 117.525 174.079 115.709C173.698 114.718 172.816 113.937 172.6 112.903C172.456 112.211 173.034 111.552 172.897 110.849C172.658 109.625 171.274 108.312 170.844 107.068C170.181 105.154 169.462 103.468 168.641 101.603C167.529 99.0787 167.787 96.4297 167.584 93.7431C167.373 90.9574 166.481 88.2922 166.166 85.5186C165.948 83.6026 166.63 81.19 165.18 79.6552C165.01 82.2063 165.741 82.1669 163.345 82.6257C160.616 83.1478 158.636 85.1808 156.056 85.7875C155.525 85.9126 155.137 83.5893 155.344 86.7585C154.107 85.8448 151.465 86.9793 152.451 87.5216C151.704 88.3206 150.233 87.7678 149.987 88.9648C147.449 86.4972 143.379 94.8966 140.356 90.5153C139.857 93.4847 137.707 95.2402 134.821 95.633C133.369 95.83 132.475 96.3138 131.187 96.7489C130.925 96.8364 130.829 97.2125 130.52 97.3139C130.047 97.468 129.353 97.0027 129.012 97.0931C128.319 97.2774 127.547 98.1899 126.579 98.3712C125.469 98.5792 124.258 98.4836 123.147 98.355C121.758 98.1939 121.146 98.0294 119.786 98.4871C118.562 98.8991 117.252 100.053 116.116 98.7965C114.332 101.883 110.079 101.129 107.979 98.8342ZM190.451 61.5892C189.101 61.4276 190.039 60.2665 190.664 59.9177C192.363 58.971 191.909 61.7642 190.451 61.5892ZM115.698 72.6649C123.622 61.2335 137.175 53.3793 149.1 46.7708C155.614 43.1612 162.262 39.6622 169.101 36.7079C172.502 35.2397 175.942 33.8284 179.414 32.5386C181.268 31.8497 183.145 31.2234 185.022 30.6C185.542 30.4279 186.486 29.8995 187.029 29.9511C186.936 29.9418 188.38 30.3346 188.096 30.458C189.027 30.053 189.469 28.9968 190.563 28.5744C191.793 28.0993 193.359 27.9029 194.676 27.8601C195.841 27.8218 196.85 28.3033 197.96 28.3409C198.689 28.3653 199.309 28.0188 200.023 27.9678C200.389 27.9423 200.357 28.4893 200.577 28.5211C200.672 28.535 201.646 28.1694 201.655 28.1758C202.01 28.4035 202.324 29.2923 202.644 29.6394C203.563 30.6347 204.912 31.3283 206.137 31.852C207.628 32.4894 211.266 33.1302 209.58 35.4883C210.778 35.3162 211.335 36.3985 209.836 36.6726C209.024 36.8215 208.677 36.0775 208.073 35.57C206.68 34.3996 203.298 32.7333 201.291 32.8086C200.161 32.8509 199.289 33.7078 198.248 34.019C197.223 34.3249 196.715 33.8504 195.816 33.9257C194.765 34.0132 194.088 34.9025 193.086 35.0607C192.148 35.209 191.626 34.5694 190.787 34.614C189.791 34.6667 188.826 35.5323 187.874 35.8232C186.361 36.2855 185.25 36.6007 183.772 37.3673C180.909 38.8534 177.711 39.4177 174.76 40.697C172.401 41.7196 169.726 42.2579 167.543 43.3889C165.115 44.6456 162.676 45.8976 160.299 47.2632C158.582 48.2499 155.091 48.5895 153.197 48.3386C153.17 51.8254 151.454 49.3809 149.724 50.9082C150.133 51.2692 150.598 51.5345 151.117 51.7043C149.242 52.4528 147.51 53.3845 145.694 54.2449C143.817 55.1348 141.815 55.3307 140.582 57.0138C139.446 58.5648 139.831 57.7647 138.136 58.3754C137.359 58.6558 136.683 59.511 136.122 60.0851C135.16 61.0724 134.946 62.5672 134.396 60.5382C134.236 60.7856 133.604 62.361 133.482 62.401C132.793 61.6698 132.694 62.5365 132.308 62.8465C132.511 63.5204 132.221 63.9618 131.439 64.171C131.044 64.4653 130.643 64.7539 130.238 65.036C128.768 66.0552 126.898 66.9295 125.863 68.4481C125.1 67.9979 124.817 67.2209 125.282 66.4277C123.824 67.7719 122.084 69.1526 121.689 71.2216C121.508 71.0466 121.296 70.9203 121.057 70.8427C120.464 71.2425 121.236 72.4337 121.611 72.7019C123.248 72.0658 121.202 72.2964 122.302 72.3989C122.616 72.4279 122.938 72.6625 123.284 72.6666C124.298 72.6799 125.251 72.6313 126.257 72.4766C128.475 72.1347 130.655 71.498 132.802 70.8595C135.14 70.1642 137.479 69.4701 139.766 68.6172C141.649 67.915 143.501 67.1323 145.352 66.3524C146.091 66.0407 146.83 65.7249 147.571 65.4155C148.977 64.828 149.718 63.8628 149.522 65.5164C150.642 65.3304 151.612 63.7475 152.472 63.1015C153.682 62.1935 155.042 61.5162 156.476 61.0527C157.056 60.865 157.483 60.6263 158.083 60.6246C158.377 60.624 158.554 61.4537 158.739 61.4085C160.025 61.0968 159.439 60.3841 160.017 59.3574C161.282 57.1135 164.689 55.8724 166.781 54.5977C168.109 53.7883 169.052 52.6997 170.278 51.8033C170.851 51.3844 171.268 51.199 171.869 51.0218C172.329 50.8856 172.893 51.9424 173.191 50.8804C172.121 50.4429 171.239 49.9035 170.209 49.5843C169.481 49.3577 170.355 48.5831 169.2 49.0443C168.737 49.2297 168.578 50.1266 168.407 50.502C167.118 49.3508 163.493 50.5437 161.964 51.0258C161.858 51.0588 161.386 50.8097 161.164 50.8248C160.281 50.8838 159.666 52.0722 159.085 52.5844C157.54 53.9453 155.863 54.5143 153.961 55.2913C154.467 52.5247 158.189 51.3914 160.361 50.3317C163.536 48.7824 166.492 46.8049 169.968 45.9718C172.283 45.4161 175.351 44.9694 176.351 47.6613C176.95 49.2749 177.025 53.2837 175 54.0282C174.786 53.275 175.471 52.6313 175.677 51.9777C173.662 52.7472 173.33 55.1684 171.799 56.4321C170.939 57.1418 170.631 57.3695 170.215 58.0555C169.802 58.7369 169.604 59.3725 168.636 60.0973C167.053 56.7363 167.321 61.3401 166.518 61.9178C166.841 61.6854 165.211 62.3639 165.405 62.292C165.33 62.3199 164.62 61.1692 164.159 61.1935C163.321 61.2376 163.482 62.1605 163.078 62.6252C161.709 64.1977 159.94 65.229 157.737 64.9816C157.685 66.1004 158.03 67.437 156.503 67.539L156.302 65.0586C155.471 65.8999 154.376 66.6989 153.699 67.6728C152.929 68.7812 153.012 69.4637 151.734 70.2025C150.399 70.9748 147.559 72.4963 145.97 72.6278C146.363 72.0704 146.294 71.5669 145.763 71.1185C144.964 71.9424 143.784 72.0235 142.934 72.7674C145.886 74.0009 140.665 73.9372 140.003 74.0768C139.56 74.1707 139.173 74.5745 138.724 74.6655C138.128 74.7866 138.051 74.1597 137.537 74.3584C136.786 74.6493 137.091 75.4703 136.306 75.8828C135.741 76.1794 134.784 76.1754 134.147 76.457C132.63 77.1291 129.397 78.6175 128.372 76.8121C127.852 79.9096 122.544 78.0242 120.58 77.8156C117.889 77.53 113.202 76.2669 115.698 72.6649ZM127 40.9734C127.381 40.6483 127.762 40.6721 128.143 41.0452C127.612 38.2421 131.717 36.8812 133.508 35.6893C135.884 34.1088 138.68 31.0421 141.788 31.2848C141.258 31.6777 140.729 32.0705 140.2 32.4633C140.956 32.5612 141.711 32.6591 142.466 32.7571C142.04 33.3828 141.614 34.008 141.187 34.6331C140.489 30.7883 136.85 35.6424 135.796 36.3499C134.735 37.0619 133.677 37.5926 132.735 38.4612C131.801 39.3215 130.958 40.8708 129.414 40.0968C129.273 42.2927 127.508 41.697 126.287 42.9132C126.236 42.1501 126.673 41.6107 127 40.9734ZM143.127 30.0119C146.884 28.6046 150.155 26.0025 153.696 24.1438C157.078 22.3681 160.528 20.7736 163.966 19.1172C165.71 18.2765 168.905 16.1026 170.899 17.2104C173.589 18.7064 169.885 19.189 168.923 19.707C168.568 17.4033 167.321 19.4903 168.066 20.7719C166.013 19.8854 161.536 23.3537 159.578 24.3101C159.135 24.5268 159.333 24.652 158.829 24.9069C158.705 24.9695 157.42 25.2621 157.052 25.3855C155.209 26.0025 153.994 25.5124 153.199 27.7378C153.033 27.214 152.867 26.6897 152.701 26.1653C151.546 28.7569 148.038 29.8914 145.795 31.4239C145.217 31.819 143.565 33.3515 142.832 33.0346C141.811 32.5931 142.221 30.3509 143.127 30.0119ZM210.908 37.8256C212.494 37.9304 210.965 38.6703 211.4 39.1593C211.351 39.1043 212.356 39.9612 212.224 39.726C212.401 40.0423 212.827 40.0307 213.045 40.6738C213.795 42.8854 210.519 45.1705 209.414 46.4255C207.266 48.8664 206.024 51.9575 203.785 54.3202C202.774 55.3875 201.769 56.1244 200.367 56.5225C199.386 56.8012 198.348 56.5028 197.447 57.446C196.721 58.2056 196.885 58.6372 196.083 59.0411C194.669 59.7532 194.046 59.1286 192.671 60.6674C191.487 57.4495 194.888 57.4547 196.663 55.6563C199.113 53.1736 201.797 50.6689 204.094 48.013C206.135 45.6531 206.952 43.5841 207.921 40.7173C208.226 39.8134 208.559 37.8754 209.401 37.3082C210.712 36.4252 209.925 37.7601 210.908 37.8256ZM218.709 121.42C222.869 116.766 228.031 112.588 233.625 109.785C235.625 108.782 238.471 107.467 240.544 109.01C242.576 110.522 242.139 113.539 241.319 115.591C240.534 115.283 241.275 112.399 240.868 111.686C239.979 110.131 238.062 110.957 236.757 111.478C235.228 112.089 233.864 112.763 232.654 113.872C232.163 114.321 231.222 114.723 230.908 115.032C230.435 114.836 230.156 114.979 230.073 115.461C230.17 115.756 230.159 116.047 230.038 116.333C229.969 116.424 229.354 116.051 229.266 116.126C228.868 116.467 228.495 116.869 228.102 117.186C227.315 117.823 226.645 118.124 225.92 119.011C224.521 120.727 222.669 121.732 221.263 123.367C220.945 123.736 220.565 124.684 220.493 124.767C219.782 125.596 218.728 126.253 217.927 127.131C216.54 128.648 215.06 129.667 213.46 130.968C212.771 131.528 211.968 132.131 211.509 132.91C211.301 133.265 211.183 135.212 211.176 135.22C209.607 136.939 209.912 133.483 210.03 133.049C211.304 128.386 215.612 124.885 218.709 121.42ZM210.145 152.954C210.34 153.687 210.501 154.292 210.699 155.036C209.455 154.015 209.455 154.015 210.145 152.954ZM208.801 155.353C208.344 155.814 207.885 156.271 207.422 156.726C206.404 155.65 208.988 155.169 208.801 155.353ZM208.155 136.835C207.668 138.803 205.887 141.19 204.662 142.744C204.797 142.572 203.617 142.917 203.482 142.995C203.046 143.248 204.091 144.885 202.579 144.153C202.043 144.457 203.099 145.694 202.37 146.247C200.263 141.447 206.015 137.288 208.243 133.724C209.332 134.724 208.429 135.731 208.155 136.835ZM194.472 162.788C196.008 163.183 196.807 162.934 197.844 161.426C198.467 160.52 198.695 158.915 200.121 160.27L200.372 158.527C202.408 159.362 202.237 162.379 203.126 164.051C203.559 162.16 204.584 156.875 207.722 157.723C211.246 158.675 205.382 164.734 204.837 166.218C203.639 164.36 204.11 166.089 203.197 166.35C202.413 166.576 201.188 165.999 200.235 166.051C197.337 166.209 194.792 167.512 192.144 168.616C191.474 166.809 190.804 165.002 190.134 163.195C191.692 163.314 194.915 159.166 195.373 162.181C194.217 161.98 193.891 162.031 193.328 163.083C193.688 162.901 194.069 162.802 194.472 162.788ZM200.977 186.375C200.972 186.361 203.975 186.546 204.243 186.448C206.297 185.698 205.537 183.368 205.958 181.721C206.805 182.499 206.356 183.92 206.617 184.928C206.923 186.112 207.811 187.122 207.893 188.388C208.08 191.25 205.732 190.615 203.952 191.541C202.431 192.332 202.263 193.327 200.978 191.195C200.631 190.618 199.883 189.114 199.96 188.376C200.035 187.645 201.193 187.037 200.977 186.375ZM203.397 198.758L202.566 197.828C205.04 198.585 203.581 197.447 204.15 195.89C206.049 197.154 207.598 198.454 209.1 195.923L211.696 206.392C209.952 206.802 207.703 204.109 206.507 203.183C205.817 202.649 201.984 200.589 204.285 199.989C203.989 199.579 203.693 199.168 203.397 198.758ZM220.34 165.882C218.899 167.253 217.448 168.02 215.879 169.097C214.503 170.042 214.977 171.128 213.784 172.182C212.992 172.883 211.135 173.597 210.156 174.132C208.413 175.084 206.852 175.266 205.058 174.199C205.546 178.128 202.855 178.436 199.506 179.214C197.909 179.585 196.963 180.153 195.812 178.69C195.023 177.689 194.714 175.876 195.695 174.96C197.253 173.504 201.404 174.007 203.403 173.091C204.92 172.397 206.465 168.486 208.336 169.909C207.371 168.371 208.495 167.957 209.335 166.86C210.254 165.658 210.819 164.252 211.771 163.06C213.578 160.793 216.354 158.513 218.921 157.146C221.18 155.944 222.366 156.795 222.704 159.32C222.875 160.59 222.868 162.481 222.157 163.607C221.931 163.966 221.183 163.97 220.956 164.308C220.562 164.897 220.924 165.327 220.34 165.882ZM246.849 135.41C248.652 136.806 248.476 139.737 248.76 141.734C249.16 144.548 248.87 147.271 248.827 150.137C248.782 153.14 247.309 155.096 246.615 157.911C245.844 161.042 244.85 162.7 243.121 165.328C244.996 165.623 242.205 171.222 241.745 171.947C241.246 172.734 237.219 176.359 238.945 176.359C237.993 177.616 236.955 178.905 236.006 180.126C235.633 180.607 234.977 180.796 234.683 181.135C234.083 181.825 234.047 182.441 233.618 183.246C232.966 184.468 232.751 184.142 231.894 185.028C231.303 185.641 230.915 186.449 230.334 187.036C228.461 188.926 228.222 187.378 227.175 185.922C227.015 186.312 226.73 186.556 226.32 186.655C225.992 185.007 228.25 183.343 229.199 182.342C230.753 180.701 232.174 178.893 233.548 177.099C236.491 173.254 239.136 169.169 241.223 164.794C243.443 160.137 245.217 155.098 246.138 150.017C246.84 146.145 247.508 139.503 242.334 138.518C238.571 137.802 234.422 140.088 231.32 141.94C229.43 143.067 227.529 144.188 225.728 145.457C223.773 146.832 222.084 148.779 219.962 149.882C221.122 149.279 217.293 151.096 217.88 150.585C217.605 150.823 217.842 151.553 217.661 151.882C217.424 152.31 216.603 152.733 216.234 153.01C215.261 153.741 213.706 154.489 213.263 155.697C207.089 151.292 219.367 143.473 222.514 141.481C228.757 137.532 239.62 129.814 246.849 135.41ZM263.503 92.5744C263.444 89.4029 266.027 85.0731 267.771 82.4867C268.625 81.2207 269.988 81.2711 270.488 79.778C270.777 78.9182 270.398 78.0167 270.484 77.1534C270.6 75.9859 271.106 75.0496 271.69 74.0461C276.97 64.9746 283.385 56.9454 290.218 49.031C293.587 45.1294 296.782 41.0777 300.415 37.4125C301.933 35.8817 306.012 30.3787 308.346 30.9291C309.582 31.2205 310.301 33.1064 310.859 34.0688C311.781 35.6604 312.796 37.1512 313.917 38.6147C316.876 42.4786 320.289 45.8704 324.32 48.6092C326.837 50.3207 329.38 51.9841 331.841 53.7773C333.867 55.253 336.93 56.9402 338.377 59.0121C339.824 61.0846 337.699 62.8396 336.538 64.5604C334.732 67.2366 333.072 70.0095 331.259 72.6828C330.539 72.1649 330.725 71.1127 330.231 70.4493C329.793 69.8612 329.173 69.6219 328.569 69.2586C327.409 68.5639 326.271 67.7146 325.224 68.8785C323.392 70.9157 325.912 75.731 328.628 75.2026C328.948 77.2131 323.524 80.5243 322.165 81.6309C317.993 85.025 313.69 87.9758 308.179 88.2829C305.949 88.4069 303.629 88.2377 301.51 87.4915C300.495 87.134 299.373 86.6432 298.594 85.864C297.663 84.9311 297.425 83.5429 296.521 82.6194C295.737 81.8181 294.661 81.6947 293.878 80.8905C293.093 80.0857 292.706 78.8145 292.387 77.7722C291.765 75.7356 291.648 73.5878 291.05 71.5466C290.69 70.3189 290.394 68.6775 289.221 69.8571C287.517 71.571 288.373 76.9599 288.809 79.0132C289.433 81.9426 290.896 84.3042 292.429 86.8246C294.09 89.5587 294.704 92.0947 295.002 95.2582C295.559 101.18 297.258 106.863 299.903 112.191C301.016 114.434 302.349 116.544 303.551 118.736C304.112 119.758 305.37 123.247 306.897 123.229C309.336 123.199 305.861 116.086 305.379 114.891C302.707 108.278 300.155 101.326 299.582 94.1649C303.413 95.1516 307.588 96.0879 311.554 95.4627C308.994 101.188 311.668 106.889 311.341 112.782C311.178 115.738 311.059 118.464 311.12 121.411C311.174 123.995 310.007 126.578 308.999 128.915C306.995 133.555 304.473 139.28 300.752 142.834C297.641 145.806 293.48 146.038 289.416 145.354C280.17 143.797 274.095 136.689 270.215 128.617C267.722 123.432 265.816 117.896 264.633 112.264C263.263 105.747 263.625 99.1853 263.503 92.5744ZM275.51 48.6503C266.882 42.4074 279.42 35.318 285.802 36.2832C287.299 36.5092 290.054 37.128 289.913 39.0817C289.799 40.6785 287.135 42.4584 286.113 43.4439C283.197 46.2563 280.229 52.0635 275.51 48.6503ZM338.278 187.366C337.982 187.101 335.567 187.752 336.524 186.323C337.319 185.136 339.523 186.624 340.323 186.929C339.663 187.385 339.089 188.092 338.278 187.366ZM302.351 262.872C301.609 262.963 300.834 260.963 303.507 262.457C303.122 262.595 302.736 262.734 302.351 262.872ZM302.274 295.469C302.366 296.365 302.64 296.956 302.004 297.608C301.465 296.944 301.396 296.009 302.274 295.469ZM303.359 308.937C303.281 309.425 303.202 309.913 303.124 310.4C302.506 310.088 301.89 309.776 301.272 309.463C301.968 309.288 302.664 309.113 303.359 308.937ZM304.115 297.58C305.035 297.924 304.607 296.824 305.275 296.669C305.514 297.815 305.219 298.796 304.562 299.741C304.499 299.517 304.162 297.597 304.115 297.58ZM327.629 216.306C326.338 216.142 326.143 217.505 325.18 218.034C324.559 218.376 322.668 218.12 322.315 218.774C322.781 218.908 323.247 219.043 323.713 219.178C322.647 219.752 321.58 220.328 320.513 220.902C323.079 220.902 325.752 219.677 328.3 220.037C329.377 220.189 330.167 220.553 330.843 221.429C331.253 221.961 331.613 222.817 331.679 223.468C331.751 224.172 331.201 224.659 331.299 224.995C332.447 225.026 332.311 226.91 332.054 227.678C331.495 229.342 329.274 231.949 327.284 230.893C328.116 232.075 327.904 232.749 326.673 233.435C326.785 233.044 326.867 232.361 326.238 232.429C326.076 233.083 326.138 234.122 325.603 234.615C325.005 235.168 324.471 234.522 323.898 234.881C323.22 235.308 323.424 235.977 322.89 236.439C322.184 237.05 322.083 236.616 321.24 236.735C319.962 236.916 320.778 236.122 319.754 237.157C319.4 237.513 319.46 238.442 318.886 238.965C317.784 239.968 314.844 241.013 313.788 239.727C311.25 243.749 303.642 244.715 300.101 241.539C294.453 236.475 304.984 226.175 308.461 222.911C311.951 219.635 315.827 216.805 319.749 214.074C321.977 212.522 324.264 211.114 326.599 209.731C328.039 208.878 329.848 207.32 331.618 207.469C333.205 207.604 334.562 208.835 336.233 209.079C337.442 209.255 339.79 209.546 338.265 211.186C337.552 211.952 334.751 213.191 333.798 213.377C333.237 213.487 332.647 213.277 332.092 213.391C331.152 213.584 330.507 214.377 329.484 214.276C329.808 215.793 329.217 216.508 327.629 216.306ZM344.344 159.972C344.344 161.159 342.177 160.863 341.725 160.46C340.98 159.796 340.954 157.813 340.677 156.91C341.937 157.227 344.342 158.387 344.344 159.972ZM326.888 120.806C331.439 117.065 336.225 113.635 341.284 110.614C343.096 109.533 345.654 107.351 347.905 107.623C348.848 107.738 350.8 108.822 350.089 110.017C349.956 110.241 348.906 110.33 348.581 110.493C348.213 110.676 347.925 111.183 347.584 111.433C345.22 113.167 342.38 114.233 340.008 116.008C338.059 117.467 336.241 119.098 334.143 120.35C332.131 121.55 330.028 122.309 328.117 123.638C328.154 123.612 325.631 124.519 326.126 124.684C323.911 123.943 326.25 121.331 326.888 120.806ZM357.235 119.413C359.939 118.335 362.585 117.028 365.415 116.303C366.828 115.942 368.278 115.67 369.741 115.833C369.989 115.398 370.32 115.302 370.734 115.544C371.056 116.04 371.482 116.421 372.01 116.687C372.817 117.307 375.786 118.117 375.193 119.487C374.8 120.392 371.823 120.467 371.006 120.671C368.543 121.284 366.246 122.664 363.709 123.003C363.471 123.035 362.694 122.747 362.685 122.748C361.695 122.965 360.871 123.992 360.02 124.484C358.189 125.544 355.559 125.722 354.244 127.551C358.502 130.437 362.195 127.575 365.938 125.396C368.18 124.091 370.587 123.149 373.037 122.313C374.318 121.876 375.61 121.422 376.908 121.038C377.445 120.842 377.997 120.702 378.564 120.615C379.091 120.51 379.468 120.702 379.696 121.191C381.265 121.139 381.399 120.155 382.344 121.991C383.675 124.579 381.638 124.448 379.724 124.766C377.069 125.206 374.369 126.198 371.753 126.856C371.15 127.008 365.859 128.234 365.853 128.278C365.613 129.947 380.797 128.401 382.1 128.151C384.4 127.708 386.867 126.451 389.249 126.754C391.077 126.987 395.242 129.669 392.326 131.452C391.752 128.703 389.781 130.973 388.752 131.901C387.381 133.135 385.417 133.016 383.536 133.5C380.965 134.161 374.383 136.639 372.556 133.479C373.134 136.249 362.641 134.842 361.199 134.75C359.792 134.66 357.977 134.959 356.618 134.558C355.732 134.297 355.238 133.72 354.404 133.591C354.2 133.811 353.955 133.961 353.67 134.04C353.247 133.826 352.865 133.554 352.524 133.224C349.714 131.933 345.366 131.219 346.928 127.105C348.401 123.225 353.663 120.837 357.235 119.413ZM383.574 121.811C383.644 121.569 383.714 121.328 383.783 121.086C383.792 121.827 385.559 122.143 385.355 123.103C384.903 125.229 382.863 122.035 382.688 121.686C382.984 121.728 383.278 121.769 383.574 121.811ZM394.363 125.343C394.568 126.214 396.918 128.068 396.335 128.495C395.409 127.236 392.848 127.808 394.363 125.343ZM354.723 204.801C355.583 203.094 358.184 206 357.909 203.087C359.324 203.215 358.441 204.291 360.136 203.818C360.771 203.641 361.2 202.937 361.974 202.774C362.18 202.731 363.072 202.802 363.38 202.792C364.399 202.761 368.393 202.648 365.644 201.311C367.183 200.293 367.372 200.81 368.761 201.742C368.405 199.815 370.448 200.909 371.399 201.149C370.721 200.05 372.405 198.881 372.951 198.138C372.755 199.282 372.858 200.563 374.514 199.832C374.927 199.65 374.834 198.841 375.161 198.709C375.76 198.467 376.095 198.907 376.31 198.882C376.522 198.858 376.967 198.977 377.412 198.81C377.989 198.592 377.711 197.817 378.443 197.702C378.92 197.627 379.268 198.328 379.85 198.334C380.149 198.337 380.648 198.033 380.875 198.049C380.915 198.052 381.2 197.366 381.549 197.35C382.06 197.325 382.268 198.694 382.455 198.96C383.349 200.229 384.539 201.056 385.911 201.733C383.429 204.009 378.422 203.767 375.3 204.535C373.61 204.951 372.168 205.55 370.621 206.323C370.248 206.566 369.926 206.864 369.657 207.217C369.438 207.071 369.219 206.926 369 206.78C368.152 206.832 367.35 206.413 366.396 206.574C363.448 207.071 361.141 209.279 358.145 209.771C356.799 209.992 355.693 210.301 354.817 209.134C354.047 208.111 354.175 205.889 354.723 204.801ZM350.682 191.201C351.35 191.765 350.546 193.604 351.839 193.405C352.757 193.263 352.574 191.839 353.295 191.537C354.241 191.141 354.813 192.081 355.703 191.994C357.361 191.83 357.266 190.382 355.865 189.746C357.322 189.361 357.789 191.084 359.079 191.068C360.774 191.048 360.37 189.049 361.812 188.717C362.436 188.574 362.228 189.491 362.633 189.605C363.444 189.833 364.009 189.441 364.726 189.097C365.368 188.79 365.825 188.195 366.527 187.994C366.846 187.901 367.657 188.07 367.891 187.899C368.363 187.555 368.786 186.214 369.251 186.037C369.156 186.073 370.68 186.837 370.898 186.908C370.764 187.474 370.454 187.542 369.968 187.111C369.968 188.388 373.518 188.786 372.79 187.207C374.71 188.002 373.28 188.411 373.088 189.521C373.012 189.967 372.752 189.955 372.829 190.426C372.865 190.644 373.871 190.457 373.858 190.753C373.774 192.659 367.697 193.246 366.545 193.414C364.162 193.762 361.906 194.348 359.608 195.069C357.897 195.606 354.948 197.144 353.128 197.049C350.51 196.912 350.168 193.495 350.682 191.201ZM344.832 171.743C344.193 169.622 346.241 165.241 348.909 165.788C349.565 165.923 349.726 166.466 350.235 166.707C350.945 167.045 352.101 166.867 352.716 167.216C354.097 167.997 353.401 169.988 354.785 170.708C352.601 171.238 345.846 175.115 344.832 171.743ZM347.359 179.985C348.3 179.479 349.826 179.414 350.467 178.441C350.787 178.663 351.391 180.006 351.964 179.8C352.232 179.705 352.508 178.977 352.489 178.977C353 178.963 353.101 178.271 353.882 178.349C354.598 178.421 355.4 179.282 356.037 179.603C355.928 177.468 356.475 177.264 358.206 176.122C358.585 175.872 358.902 174.932 359.252 174.552C358.917 176.792 359.761 176.804 361.55 177.14C363.792 177.562 365.189 178.766 366.088 180.933C364.177 180.56 361.712 181.008 360.959 183.062C359.434 180.276 353.891 184.121 352.098 184.908C350.767 185.493 349.219 186.279 348.103 184.916C347.318 183.957 347.768 182.803 347.785 181.951C347.789 181.683 348.066 181.667 348.04 181.269C348.008 180.76 347.345 180.557 347.359 179.985ZM367.76 223.799C367.255 223.99 364.658 224.097 364.641 223.237C364.627 222.477 369.225 223.243 367.76 223.799ZM363.541 221.015C361.575 222.227 359.377 217.958 358.654 216.728C360.715 216.992 361.722 215.268 362.936 213.957C364.092 216.489 365.846 215.151 367.691 214.305C369.868 213.308 372.252 213.301 374.482 212.501C375.178 212.251 375.819 211.88 376.498 211.594C377.045 211.389 377.59 211.18 378.133 210.965C378.518 210.617 378.656 210.189 378.543 209.681C378.361 209.255 378.485 208.985 378.917 208.874C379.43 209.027 379.954 209.116 380.489 209.14C381.349 208.97 382.583 208.159 381.546 207.286C382.658 206.276 383.771 207.28 384.841 207.722C384.586 206.997 384.333 206.272 384.079 205.547C384.61 205.773 386.185 207.974 386.346 207.962C387.365 207.886 387.259 206.519 387.844 205.967C388.181 206.384 388.278 209.49 389.606 208.444C390.174 207.996 388.951 206.473 388.65 206.126C390.169 206.469 391.496 208.282 391.906 209.69C391.185 209.794 390.518 209.649 389.906 209.254C389.514 211.215 393.143 210.421 393.731 211.445C394.882 213.45 387.397 214.843 386.422 215.029C384.47 215.401 382.167 215.54 380.379 216.405C378.665 217.233 378.259 217.469 376.257 217.625C373.971 217.802 371.741 218.555 369.53 219.142C367.611 219.65 365.242 219.967 363.541 221.015ZM405.315 149.234C407.119 148.585 413.198 145.214 414.746 146.713C414.583 146.554 415.862 149.198 415.848 149.031C415.959 150.406 415.925 150.96 414.233 151.618C413.02 152.09 411.965 151.088 410.874 151.486C409.677 151.923 410.515 152.697 409.898 153.238C409.223 153.83 407.92 154.087 407.079 154.346C405.021 154.982 402.947 155.513 400.899 156.198C396.732 157.591 392.318 158.888 388.035 159.873C384.835 160.61 379.403 162.44 376.453 160.278C376.166 161.507 375.462 161.339 374.485 161.518C373.719 161.659 372.333 162.038 371.651 162.058C370.518 162.091 367.365 161.794 367.799 160.203C367.68 160.641 370.251 159.142 369.806 159.048C370.898 159.278 370.544 158.729 371.439 158.423C372.607 158.023 373.829 158.045 375.022 157.622C378.029 156.556 380.552 155.172 383.727 154.504C390.978 152.979 398.319 151.752 405.315 149.234ZM114.636 313.545C114.049 313.56 113.592 311.891 115.379 313.083C115.132 313.237 114.884 313.39 114.636 313.545ZM100.517 311.385C99.7177 311.589 99.399 311.143 99.5618 310.047C100.676 309.607 100.994 310.053 100.517 311.385ZM89.616 309.149C89.4115 308.172 90.1357 307.952 90.7921 307.513C90.7261 308.807 90.7261 308.807 89.616 309.149ZM62.1888 301.11C61.0839 300.868 59.6117 299.787 59.3585 301.601C59.1737 301.181 58.2304 299.205 58.6354 298.748C58.8469 298.509 59.6476 299.615 59.5624 299.506C60.5294 297.55 62.1964 299.91 63.128 300.609C62.8151 300.776 62.5017 300.943 62.1888 301.11ZM349.46 84.9421C349.841 84.1356 350.291 83.8795 350.808 84.1744C349.996 86.0609 347.245 87.0836 349.46 84.9421ZM368.574 67.2337C369.255 68.5112 368.23 69.0512 367.498 70.1132C367.927 68.9678 368.223 68.174 368.574 67.2337ZM451.646 191.944C454.104 191.943 459.339 190.646 460.821 193.456C461.802 191.546 462.917 195.126 463.768 195.701C463.864 195.766 464.477 195.297 464.762 195.469C465.192 195.73 465.562 196.438 465.809 196.859C466.551 198.129 466.87 199.639 467.282 201.037C462.989 201.037 458.587 200.037 454.298 199.674C451.483 199.435 448.723 199.428 445.903 199.58C445.343 199.61 444.23 199.426 443.751 199.531C443.265 199.638 442.382 200.63 441.846 200.47C442.679 202.035 453.357 205.824 454.172 204.091C453.206 203.507 451.063 203.058 451.064 201.647C451.066 200.066 453.075 200.069 454.14 200.115C456.47 200.217 460.37 200.992 461.325 203.414C461.734 204.452 461.86 207.067 461.41 208.069C461.12 208.716 460.628 209.494 459.85 209.626C459.53 209.68 459.07 209.255 459.022 209.265C457.424 209.604 454.466 210.888 452.723 209.078C451.467 210.705 445.413 208.928 443.56 208.315C440.318 207.242 435.855 205.768 433.887 202.744C431.487 199.058 436.366 195.942 439.167 194.444C442.996 192.396 447.371 191.946 451.646 191.944ZM468.003 200.467C468.757 200.679 469.51 200.893 470.263 201.105C470.061 202.426 467.089 201.381 468.003 200.467ZM490.778 248.485C491.01 243.192 489.48 238.531 488.596 233.412C488.377 232.143 488.601 229.925 487.637 228.881C486.716 227.883 484.661 228.695 484.579 226.931C483.672 227.993 483.764 228.215 482.646 226.994C482.85 227.517 482.88 228.05 482.735 228.592C482.041 228.195 479.528 226.875 479.74 228.68C477.673 228.222 478.271 226.93 477.092 225.943C476.925 225.803 476.252 226.301 475.99 226.088C475.516 225.704 475.281 225.356 474.881 224.861C474.373 225.475 473.681 225.919 473.06 226.404C472.699 225.618 471.997 225.041 471.152 224.85C471.942 226.502 473.894 228.642 471.216 229.583C469.618 230.144 466.999 229.456 465.306 229.587C459.032 230.074 452.159 228.706 446.092 227.211C439.86 225.675 433.557 223.508 427.952 220.34C426.757 219.664 426.005 218.865 424.976 218.027C423.976 217.212 423.248 217.084 422.046 216.563C419.882 215.625 417.903 214.122 416.257 212.446C412.717 208.843 409.429 204.131 410.414 198.855C411.397 193.597 415.011 189.488 418.879 186.026C423.446 181.937 428.603 178.522 434.076 175.77C436.523 174.54 442.783 169.917 445.201 172.622C446.746 174.35 445.877 176.554 443.766 176.938C443.245 177.033 442.701 176.684 442.174 176.923C441.415 177.269 441.682 177.676 441.369 177.964C440.825 178.464 440.247 179.244 439.434 179.678C436.596 181.19 433.854 182.389 431.141 184.232C429.891 185.08 428.688 185.445 427.586 186.186C426.49 186.923 426.24 188.142 424.766 187.39C425.291 189.534 422.14 191.829 420.904 193.143C418.991 195.176 416.696 197.772 417.589 200.781C419.337 206.671 427.235 211.144 432.289 213.734C438.596 216.964 445.552 219.536 452.574 220.601C456.066 221.13 459.674 221.456 463.192 221.792C465.93 222.053 470.133 221.096 472.104 223.563C472.165 220.687 481.148 220.941 483.059 220.573C479.226 207.47 471.699 195.82 463.653 184.936C459.704 179.592 455.825 174.098 451.324 169.199C446.396 163.837 440.765 159.045 435.416 154.111C424.923 144.433 413.056 135.796 400.98 128.188C388.932 120.597 376.455 113.127 363.256 107.714C348.181 101.534 332.31 97.468 316.421 94.0055C318.576 91.2592 322.082 89.9197 324.842 87.9104C325.808 87.207 327.114 85.5186 328.369 85.288C329.729 85.0377 330.799 86.5001 331.766 87.2342C334.543 89.3409 336.464 88.4463 339.645 88.3194C341.548 88.2435 346.055 89.3032 346.858 86.729C347.925 88.1496 346.377 89.2887 345.585 90.3305C346.162 91.1347 346.626 90.3003 347.196 90.1746C347.372 90.0292 347.547 89.8832 347.722 89.7377C348.005 89.3287 348.26 89.3264 348.486 89.7296C348.826 90.2407 349.168 90.1277 349.512 89.3901C349.606 89.331 349.7 89.2713 349.795 89.2122C350.206 88.9932 350.603 88.6468 350.985 88.3739C353.876 86.3083 356.452 84.5487 359.642 83.0273C362.322 81.7503 360.881 79.307 362.648 77.5816C363.048 77.1911 363.72 77.3869 364.148 77.0561C364.566 76.731 364.629 76.3625 364.935 76.0143C365.669 75.1771 364.795 74.2055 366.668 75.2304L365.992 71.429C369.664 74.9911 369.649 64.7405 370.151 63.2237C370.085 63.4242 370.481 61.872 370.48 61.8853C370.588 58.8093 371.008 56.5798 367.405 56.4014C368.769 55.5433 369.186 57.2189 369.816 55.4842C370.131 54.6151 369.147 53.1215 370.716 53.6817C371.047 51.8346 370.72 50.3398 370.308 48.5449C369.887 46.7076 370.135 45.4816 370.154 43.6444C370.175 41.5603 369.199 39.4658 368.887 37.4136C368.643 35.8064 368.895 33.2716 366.817 33.862C366.525 33.4048 367.551 31.9986 367.509 31.3034C367.445 30.2234 366.272 29.126 365.94 28.0889C365.452 28.593 364.764 28.761 364.099 28.5333C364.723 27.1242 364.137 26.6509 363.54 25.4359C363.198 24.74 363.404 23.9718 362.671 23.473C362.251 23.1868 361.535 23.6689 361.206 23.3334C360.501 22.615 360.761 21.6619 360.276 20.7151C359.667 19.528 358.276 18.6212 357.317 17.7301C351.928 12.7213 346.075 8.89325 338.907 6.93607C331.676 4.96151 323.245 4.25408 316.038 6.53166C313.157 7.44188 310.6 7.3486 308.007 9.04853C307.167 9.60011 307.076 9.45237 306.649 10.3719C306.551 10.5862 307.446 11.1569 306.898 11.5075C306.302 11.8881 305.644 11.1141 305.341 10.4715C301.59 13.1865 298.075 16.806 295.939 20.9562C293.816 25.0801 293.622 29.925 292.811 34.4066C289.072 30.1353 284.015 28.0878 278.517 30.1411C273.725 31.9303 270.012 35.8632 269.075 40.9583C268.503 44.0644 269.127 47.2099 270.538 50.0125C271.148 51.2234 271.887 52.5641 273.009 53.3793C273.896 54.0236 275.415 53.9332 275.833 55.0954C276.473 56.8759 272.775 60.7213 271.815 62.2799C270.079 65.1003 268.465 68.0129 267.237 71.0936C262.833 64.8726 258.617 58.0781 253.609 52.3422C248.883 46.9284 243.249 42.0731 237.724 37.497C226.255 27.9997 214.33 19.0772 201.501 11.5109C189.556 4.46556 175.127 0.554094 161.205 1.9371C147.603 3.28881 137.189 11.8916 128.426 21.8137C111.576 40.8911 101.256 68.0825 100.248 93.4777C99.9448 101.107 100.526 108.636 102.41 116.035C103.308 119.558 103.177 123.024 103.699 126.592C104.287 130.618 105.305 134.629 106.29 138.572C110.039 153.594 114.817 168.604 120.178 183.128C122.966 190.681 126.338 198.065 130.901 204.725C133.008 207.802 135.738 210.209 138.006 213.13C140.206 215.963 140.787 219.441 141.271 222.917C142.431 231.253 143.2 239.624 143.898 248.008C144.194 251.561 144.54 255.083 145.01 258.612C145.421 261.689 144.389 261.537 141.8 262.582C142.325 259.818 129.96 261.698 128.793 261.887C127.522 262.092 126.177 262.095 125.176 262.259C124.057 262.441 122.962 262.704 121.674 262.667C119.78 262.613 116.233 262.129 115.51 264.547C115.012 261.744 111.725 264.809 114.157 264.288C111.661 264.568 109.113 264.103 106.586 264.338C103.691 264.607 100.77 264.863 97.8943 265.299C95.8925 265.602 93.9823 266.373 91.977 266.597C89.4109 266.883 86.7329 266.857 84.1419 267.085C74.5849 267.928 64.679 270.013 55.3891 272.4C53.2848 272.94 50.867 273.324 48.8565 274.192C48.3182 274.424 47.8339 274.943 47.3182 275.143C46.4537 275.476 46.5719 275.246 45.8043 275.399C41.2045 276.318 36.4593 277.82 31.8601 278.998C29.309 279.653 25.1594 280.242 23.0785 282.023C22.1457 282.82 21.3305 284.234 22.8253 285.14C24.0194 285.864 25.7238 284.709 26.6902 284.084C25.8292 286.328 24.2054 287.446 25.0824 289.999C25.7747 292.017 27.3379 294.503 29.743 293.202C30.0651 293.951 30.1955 295.441 31.1439 295.716C31.9962 295.964 32.6133 294.884 33.4482 295.138C33.7471 295.229 33.6336 295.794 33.9013 295.942C34.3625 296.195 34.83 296.303 35.3584 296.482C35.8127 296.636 36.5439 296.953 37.0178 296.986C37.3185 297.008 38.0271 296.493 38.0248 296.493C38.7154 296.598 39.0868 297.92 39.5839 298.301C40.2294 298.797 40.7624 298.91 41.5707 299.09C43.2509 299.463 45.4166 300.103 46.5256 298.382C46.2718 299.611 47.9422 299.49 48.6792 299.646C48.5975 298.999 48.24 298.406 47.6884 298.051C49.3362 298.16 48.6682 299.798 49.8861 300.231C50.754 300.538 50.6555 299.756 51.3195 299.669C52.1943 299.555 52.8583 300.19 54.2245 299.604C54.5206 300.92 54.6289 302.247 56.2449 302.443C57.1933 302.559 59.4049 300.846 59.2797 302.271C61.3985 301.65 62.2027 302.07 63.3099 303.938C63.4971 302.791 64.4027 303.124 65.2335 303.053C66.5505 302.941 66.5841 303.047 67.605 302.301C67.6982 302.233 68.5013 300.394 68.8582 301.537C69.0187 302.049 67.9578 303.254 67.565 303.561C68.0528 303.807 69.6514 304.671 70.2661 304.512C70.798 304.375 70.7997 303.466 71.4388 303.419C71.2823 303.942 71.1265 304.465 70.9695 304.988C72.2129 305.168 73.2517 304.336 74.2338 303.727C75.1701 306.094 77.8463 304.76 79.3017 306.542C80.0717 307.485 80.1076 308.201 81.5746 308.447C83.0758 308.699 84.387 308.04 85.6628 309.278C85.2584 308.51 84.2508 307.873 85.252 307.047C85.9334 308.014 86.2851 309.179 87.0707 310.078C87.1791 309.621 87.2874 309.164 87.3958 308.706C89.4439 310.897 92.0222 310.916 94.6457 312.13V310.527C96.5241 313.394 96.6243 311.58 98.8683 310.409C98.7159 311.252 98.5629 312.095 98.4105 312.937C100.025 312.816 101.534 314.729 102.86 313.104C103.66 314.447 104.631 313.786 105.943 314.212C106.689 314.455 107.245 315.189 107.971 315.455C109.06 315.854 109.385 315.835 110.41 316.183C111.321 316.491 111.839 317.091 112.98 317.283C113.721 317.409 114.393 317.399 115.102 317.365C115.376 317.352 115.286 316.735 115.895 316.879C116.836 317.102 117.537 318.283 118.215 318.888C119.235 316.325 122.09 319.759 123.47 320.216C123.602 319.559 123.579 318.767 124.054 318.227C124.613 319.45 124.826 320.479 125.985 321.267C126.655 321.721 127.637 322.047 128.41 322.213C128.899 322.318 129.786 322.193 130.093 322.343C130.617 322.6 130.81 323.285 131.339 323.35C131.65 323.387 132.111 322.569 132.344 322.632C133.41 322.923 134.002 324.218 135.079 324.919C138.282 327.003 142.314 327.205 145.883 327.662C146.779 327.776 146.908 327.532 147.636 328.057C148.024 328.338 147.848 329.192 148.326 329.431C150.125 330.333 150.126 328.409 150.503 327.214C151.098 327.999 151.201 329.036 152.015 329.66C152.459 329.648 152.904 329.657 153.348 329.69C153.598 329.976 153.763 330.306 153.839 330.679C154.917 331.407 156.137 331.154 157.251 331.7C157.616 331.879 158.262 332.962 158.712 333.273C159.517 333.831 160.761 334.129 161.681 334.371C163.609 334.878 166.374 334.204 167.521 336.217C169.044 334.585 168.455 336.534 169.489 336.944C170.1 337.185 171.018 336.224 171.695 336.32C172.915 336.491 173.354 337.812 173.745 338.772C174.487 338.606 173.977 336.505 173.957 336.044C174.88 335.935 175.085 338.366 175.244 338.9C176.701 338.198 174.309 336.014 175.876 335.314C175.732 337.174 177.215 338.706 174.567 338.973C174.933 340.093 183.473 341.338 184.066 340.349C184.198 342.177 185.426 340.469 185.879 339.844C185.93 340.91 185.567 342.424 186.764 342.92C187.578 343.257 189.412 342.386 189.731 341.589C190.096 342.807 190.706 342.767 191.465 343.541C191.987 344.072 192.33 344.993 192.877 345.438C193.884 346.257 195.756 346.132 196.928 345.949C199.223 345.591 198.952 345.151 199.769 347.536C199.954 346.631 200.533 344.738 201.544 346.145C202.187 347.039 200.818 349.01 200.422 349.795C201.306 349.309 202.184 348.733 203.19 348.524C203.246 348.834 203.298 349.492 203.149 349.778C203.179 349.72 204.252 350.44 204.65 350.639C204.555 350.591 204.965 348.8 204.953 348.858C206.369 349.732 205.387 351.402 206.641 352.264C206.964 352.487 207.725 352.227 208.116 352.363C208.798 352.599 209.388 353.238 209.994 353.612C209.51 352.963 209.58 351.874 209.613 351.124C209.921 351.295 210.141 351.932 210.452 351.982C210.57 352.002 211.79 352.163 211.782 352.157C213.051 353.046 212.79 353.158 211.7 354.227C212.089 354.839 213.717 353.776 214.157 353.599C214.249 353.838 214.273 354.707 214.446 354.863C214.551 355.12 214.656 355.377 214.762 355.634C215.087 355.392 215.436 355.311 215.808 355.392C216.043 355.473 217.879 356.22 218.004 355.965C217.602 355.835 217.238 355.635 216.912 355.367C217.972 354.415 218.669 353.908 219.645 355.284C219.768 355.457 219.345 356.079 219.471 356.305C219.937 357.147 220.895 357.816 221.546 358.501C221.815 357.555 221.189 355.186 222.685 355.272C223.88 355.341 224.789 358.236 224.375 359.137C224.85 358.617 227.687 358.101 228.222 358.263C229.736 358.722 229.312 360.122 231.174 358.071C232.444 358.947 231.325 359.279 231.554 360.348C231.889 360.418 232.207 360.335 232.507 360.099C232.283 364.64 235.633 361.17 237.809 361.864C238.663 362.136 238.881 363.106 239.798 363.389C240.283 363.538 240.822 363.184 241.294 363.271C241.672 363.217 242.047 363.15 242.42 363.071C242.893 362.834 243.115 363.099 243.086 363.866C243.846 364.26 243.559 364.414 244.448 364.49C245.02 364.54 245.547 363.945 246.197 364.046C247.32 364.222 247.171 365.084 247.889 365.534C248.534 365.939 249.262 365.926 250.057 365.848C250.462 365.808 251.599 365.286 251.736 365.284C252.585 365.272 252.124 365.092 253.144 365.821C253.938 366.39 254.271 366.759 255.246 367.021C256.363 367.32 258.346 367.975 259.098 367.168C260.114 368.69 260.909 367.573 262.25 367.673C262.936 367.726 263.045 367.993 263.655 368.099C264.645 368.272 265.88 368.123 266.933 368.46C268.591 368.993 268.778 369.261 270.474 369.333C270.78 369.213 271.086 369.094 271.391 368.974C271.482 369.485 271.723 369.901 272.113 370.224C273.061 370.423 273.684 369.944 274.466 369.42C275.049 371.235 276.94 371.394 278.558 371.632C281.168 372.018 283.664 372.228 286.181 373.086C288.307 373.81 290.437 374.624 292.481 375.551C294.281 376.368 295.979 377.589 298.015 377.016C302.628 375.717 307.099 370.981 310.958 368.262C315.529 365.042 320.459 362.388 325.236 359.493C344.252 347.967 364.341 338.216 383.09 326.261C393.326 319.734 402.824 311.979 413.817 306.698C412.252 313.165 409.588 319.73 410.069 326.5C410.263 329.228 411.066 332.451 413.182 334.356C415.798 336.711 418.712 335.211 421.214 333.529C426.575 329.924 430.15 324.665 434.162 319.726C438.908 313.883 442.589 307.606 446.074 300.947C446.908 302.12 446.273 304.083 446.286 305.383C446.302 307.041 446.749 308.639 447.518 310.119C449.503 313.94 453.281 314.866 456.694 312.248C463.263 307.211 467.075 298.239 470.595 291.014C472.603 294.749 475.452 299.45 480.273 296.782C484.251 294.581 486.589 289.663 487.805 285.497C491.358 273.337 490.232 260.95 490.778 248.485Z" fill="#4A74B4"/>
<path fill-rule="evenodd" clip-rule="evenodd" d="M484.745 175.443C484.291 174.341 484.092 174.521 484.926 173.453C485.576 174.093 485.056 174.622 484.745 175.443ZM504.85 242.138C503.574 238.511 504.362 234.573 503.587 230.852C503.231 229.145 502.67 227.49 502.468 225.752C502.378 224.981 501.691 221.51 502.159 220.963C500.72 220.092 500.715 219.447 500.383 217.738C500.895 217.194 500.831 216.73 500.189 216.345C499.769 215.837 499.349 215.329 498.929 214.822C500.765 215.719 499.679 213.422 499.492 212.098C499.344 211.052 499.244 209.96 498.895 208.957C498.466 207.724 497.511 207.101 499.497 207.101C498.844 206.357 497.866 205.59 497.541 204.68C497.072 203.37 497.845 201.639 496.89 200.482C496.357 199.836 493.613 199.584 494.094 198.19C494.339 197.479 495.452 198.01 495.796 197.512C497.149 195.556 493.155 194.745 492.959 193.913C492.705 192.834 494.148 192.593 494.236 191.585C494.323 190.597 492.788 188.975 492.382 188.092C491.83 188.227 491.224 189.101 490.591 188.683C490.471 188.604 490.651 185.187 490.507 184.733C490.366 184.287 490.077 183.104 489.974 182.885C489.564 182.015 488.392 181.591 488.206 180.564C488.095 179.951 490.497 179.023 487.742 178.994C488.732 177.25 486.919 176.19 486.259 174.7C485.41 172.784 484.91 170.715 484.039 168.789C483.192 166.917 482.245 165.14 481.023 163.485C479.918 161.986 479.44 160.544 478.556 158.962C478.38 158.823 478.203 158.683 478.026 158.544C477.289 158.651 477.053 158.316 477.317 157.537C476.753 156.703 476.334 155.811 475.837 154.939C475.26 153.926 474.48 153.1 473.884 152.114C473.091 150.808 472.857 149.334 471.962 148.024C470.862 146.411 469.624 144.99 468.604 143.317C467.326 141.221 465.911 139.919 464.302 138.296C463.537 137.523 463.445 135.592 462.507 134.495C461.485 133.3 460.476 132.976 459.768 131.407C458.847 129.366 457.495 128.391 456.18 126.627C455.094 125.172 454.564 123.499 453.368 122.091C452.339 120.882 451.172 119.777 450.074 118.63C448.688 117.182 447.665 115.423 446.222 114.046C446.43 114.245 444.967 113.085 445.04 113.122C444.716 112.957 443.671 112.824 443.824 112.914C441.646 111.634 438.918 106.95 435.641 109.432C433.918 110.737 434.745 113.131 435.948 114.431C436.465 114.99 439.15 117.743 439.73 116.582C440.357 117.47 442.285 121.761 443.89 120.531C443.726 121.998 444.576 121.511 445.137 122.502C445.506 123.156 445.326 123.477 445.595 124.498C446.335 127.305 449.157 130.046 450.661 132.493C454.403 138.584 458.531 144.362 462.277 150.46C465.847 156.271 469.845 161.786 473.269 167.676C477.165 174.374 482.018 180.696 484.952 187.917C485.051 188.159 485.866 188.543 486.069 188.908C486.422 189.541 486.346 190.636 486.573 191.354C487.36 193.84 488.637 196.288 490.091 198.348C491.367 200.155 491.459 202.611 492.337 204.731C493.575 207.719 494.883 210.676 496.086 213.679C497.958 218.353 499.226 222.832 500.52 227.712C501.358 230.874 502.025 234.035 502.292 237.3C502.538 240.303 502.598 243.431 503.709 246.275C504.467 245.104 505.36 243.588 504.85 242.138Z" fill="#4A74B4"/>
<path fill-rule="evenodd" clip-rule="evenodd" d="M76.6012 306.486C75.2558 306.214 73.9899 305.851 73.7048 304.307C73.5096 305.035 73.3149 305.763 73.1196 306.492C74.7576 306.862 76.3961 307.234 78.034 307.605C77.6516 306.931 77.3724 306.642 76.6012 306.486Z" fill="#4A74B4"/>
<path fill-rule="evenodd" clip-rule="evenodd" d="M80.2116 52.979C80.3136 52.5433 80.4457 52.1163 80.6085 51.6997C80.7192 52.1058 81.2615 52.9842 80.9457 53.3671C80.5436 53.8533 80.1369 53.578 80.2116 52.979ZM86.8068 40.4305C87.2483 40.6252 88.2037 40.6629 88.7518 40.8274C87.33 42.0505 87.0797 41.6907 85.2413 41.5488C85.1596 40.3112 85.6625 39.927 86.8068 40.4305ZM74.4826 71.0675C74.6732 71.0727 74.8644 71.0774 75.0562 71.082C75.0678 70.5432 75.0539 70.0049 75.0133 69.4672C76.952 69.8908 75.8546 66.5031 75.2457 65.8009C77.1368 65.864 78.058 59.8766 78.6571 58.723C79.189 57.6987 79.7916 57.3024 80.1803 56.0532C80.5205 54.9599 80.8884 53.9761 81.3791 52.9419C82.5066 50.5641 83.9858 48.4047 83.7129 45.6335C84.6683 47.7129 85.5084 45.6369 86.1145 44.6427C87.0907 43.0407 89.4726 40.9966 89.7258 39.0939C89.9494 37.4189 88.7049 37.3302 89.4396 35.7769C90.1824 34.2044 90.793 34.362 92.0943 33.8591C92.96 33.5242 93.132 33.9309 93.7427 32.8382C94.1384 32.1308 93.9988 31.6035 94.5058 31.0236C94.7149 31.2055 94.9531 31.2808 95.2196 31.2495C95.6309 30.7066 95.9009 30.1017 96.029 29.4349C96.3645 28.5345 96.5267 27.7077 97.0319 26.8502C97.5111 26.0379 98.3616 23.8646 98.8124 23.4729C99.291 23.0569 102.005 23.2684 101.994 23.2834C103.115 21.8732 101.058 20.4682 103.906 20.7654C103.344 19.7179 105.32 18.4177 105.894 17.8348C107.327 16.38 107.441 15.7067 107.743 13.877C107.897 12.9442 106.894 13.052 108.238 12.8393C108.794 12.7519 109.327 13.4622 109.727 13.3579C111.498 12.899 109.646 12.9865 110.134 12.2652C110.288 12.0363 111.076 11.1128 111.068 11.1226C111.03 11.169 111.246 10.319 111.424 10.1006C111.762 10.0716 112.095 10.0125 112.423 9.92327C112.589 9.58722 112.736 9.24307 112.864 8.8908C114.145 7.8224 116.061 7.34441 116.947 6.17056C117.52 5.41156 117.349 4.6682 118.089 3.91152C118.794 3.19076 119.727 3.71279 119.867 2.0847C120.045 0.0133829 117.82 -0.908426 116.91 1.18201C114.441 -1.85805 104.125 9.29579 102.933 10.753C97.7561 17.0787 92.6679 23.561 88.4216 30.556C84.2842 37.3719 80.8884 44.5436 78.2342 52.0612C76.9543 55.6859 76.175 59.2943 75.3934 63.0435C75.131 64.2991 73.1697 69.8943 73.9861 71.1463C74.1512 71.1202 74.3169 71.0936 74.4826 71.0675Z" fill="#4A74B4"/>
<path fill-rule="evenodd" clip-rule="evenodd" d="M481.97 226.193C482.842 225.612 482.842 225.612 482.995 224.513C481.826 224.726 481.826 224.726 481.97 226.193Z" fill="#4A74B4"/>
<path fill-rule="evenodd" clip-rule="evenodd" d="M52.1574 300.138C52.1684 300.137 52.1765 300.14 52.1829 300.146C52.1643 300.122 52.0971 300.052 52.1574 300.138Z" fill="#4A74B4"/>
<path fill-rule="evenodd" clip-rule="evenodd" d="M51.5721 300.727C51.8415 301.31 52.2743 301.454 52.8711 301.161C53.1063 301.497 50.8305 299.064 51.5721 300.727Z" fill="#4A74B4"/>
<path fill-rule="evenodd" clip-rule="evenodd" d="M90.9279 34.964C89.5623 37.6414 91.2726 35.694 91.1851 36.5637C91.2425 35.9924 91.4795 35.1784 90.9279 34.964Z" fill="#4A74B4"/>
<path fill-rule="evenodd" clip-rule="evenodd" d="M312.945 76.4026C313.537 81.2034 320.105 78.9328 321.582 76.0289C322.658 73.9147 325.375 65.5605 322.452 63.7956C320.285 62.4874 319.822 68.126 319.288 69.3856C318.392 71.4951 317.693 70.0003 315.703 70.5415C313.506 71.1388 312.7 74.4118 312.945 76.4026Z" fill="#4A74B4"/>
<path fill-rule="evenodd" clip-rule="evenodd" d="M305.769 67.6155C308.117 68.137 310.418 67.8681 312.086 66.0141C313.009 64.9874 314.238 62.9508 312.575 61.9572C311.068 61.0574 309.36 63.1646 307.773 62.7289C305.614 62.1362 306.726 59.8221 305.985 58.2937C303.264 59.8604 301.746 66.7221 305.769 67.6155Z" fill="#4A74B4"/>
<path fill-rule="evenodd" clip-rule="evenodd" d="M308.203 79.738C305.94 79.7334 305.921 82.5168 307.103 83.7098C308.233 84.8512 311.092 86.0065 312.624 85.1188C315.648 83.3668 310.035 79.9188 308.203 79.738Z" fill="#4A74B4"/>
<path fill-rule="evenodd" clip-rule="evenodd" d="M176.526 190.423C177.009 190.658 178.433 191.865 179.033 191.32C178.186 190.467 177.339 189.613 176.492 188.76C176.023 189.273 175.702 190.023 176.526 190.423Z" fill="#4A74B4"/>
<path fill-rule="evenodd" clip-rule="evenodd" d="M165.831 68.3102C165.59 68.4898 165.349 68.6688 165.109 68.8479C165.921 69.524 165.9 69.7251 166.718 69.0848C166.476 68.765 166.18 68.5072 165.831 68.3102Z" fill="#4A74B4"/>
<path fill-rule="evenodd" clip-rule="evenodd" d="M319.213 227.593C318.758 226.776 317.899 228.283 317.318 228.528C316.372 228.926 315.596 226.817 315.867 229.345C313.73 228.366 312.433 230.611 311.054 231.78C309.107 233.433 306.725 234.329 305.426 236.676C311.541 238.106 318.259 232.835 322.818 229.372C323.562 228.807 327.28 225.955 324.76 225.679C323.729 225.566 319.978 228.966 319.213 227.593Z" fill="#4A74B4"/>
<path fill-rule="evenodd" clip-rule="evenodd" d="M317.399 222.644C318.597 221.7 316.014 221.614 315.605 221.515C315.641 222.265 315.675 223.015 315.71 223.765C316.289 223.415 316.852 223.04 317.399 222.644Z" fill="#4A74B4"/>
<path fill-rule="evenodd" clip-rule="evenodd" d="M312.9 225.79C313.258 225.566 314.256 224.868 313.577 224.348C312.963 224.739 312.525 225.376 312.429 226.103C312.586 225.999 312.743 225.894 312.9 225.79Z" fill="#4A74B4"/>
<path fill-rule="evenodd" clip-rule="evenodd" d="M213.875 164.95C213.109 165.25 212.766 165.724 212.847 166.374C214.023 166.134 213.799 165.023 213.875 164.95Z" fill="#4A74B4"/>
<path d="M12 428.528C9.728 428.528 7.792 427.936 6.192 426.752C4.592 425.568 3.376 423.84 2.544 421.568C1.712 419.264 1.296 416.48 1.296 413.216C1.296 410.048 1.712 407.328 2.544 405.056C3.376 402.752 4.592 400.992 6.192 399.776C7.792 398.528 9.728 397.904 12 397.904C14.304 397.904 16.24 398.528 17.808 399.776C19.408 400.992 20.624 402.752 21.456 405.056C22.288 407.328 22.704 410.048 22.704 413.216C22.704 416.48 22.288 419.264 21.456 421.568C20.624 423.84 19.408 425.568 17.808 426.752C16.24 427.936 14.304 428.528 12 428.528ZM12 425.6C13.536 425.6 14.832 425.12 15.888 424.16C16.976 423.2 17.808 421.808 18.384 419.984C18.96 418.128 19.248 415.872 19.248 413.216C19.248 410.688 18.96 408.512 18.384 406.688C17.808 404.832 16.976 403.392 15.888 402.368C14.832 401.344 13.536 400.832 12 400.832C10.496 400.832 9.2 401.344 8.112 402.368C7.024 403.392 6.192 404.832 5.616 406.688C5.04 408.512 4.752 410.688 4.752 413.216C4.752 415.872 5.04 418.128 5.616 419.984C6.192 421.808 7.024 423.2 8.112 424.16C9.2 425.12 10.496 425.6 12 425.6ZM36 428.528C33.728 428.528 31.792 427.936 30.192 426.752C28.592 425.568 27.376 423.84 26.544 421.568C25.712 419.264 25.296 416.48 25.296 413.216C25.296 410.048 25.712 407.328 26.544 405.056C27.376 402.752 28.592 400.992 30.192 399.776C31.792 398.528 33.728 397.904 36 397.904C38.304 397.904 40.24 398.528 41.808 399.776C43.408 400.992 44.624 402.752 45.456 405.056C46.288 407.328 46.704 410.048 46.704 413.216C46.704 416.48 46.288 419.264 45.456 421.568C44.624 423.84 43.408 425.568 41.808 426.752C40.24 427.936 38.304 428.528 36 428.528ZM36 425.6C37.536 425.6 38.832 425.12 39.888 424.16C40.976 423.2 41.808 421.808 42.384 419.984C42.96 418.128 43.248 415.872 43.248 413.216C43.248 410.688 42.96 408.512 42.384 406.688C41.808 404.832 40.976 403.392 39.888 402.368C38.832 401.344 37.536 400.832 36 400.832C34.496 400.832 33.2 401.344 32.112 402.368C31.024 403.392 30.192 404.832 29.616 406.688C29.04 408.512 28.752 410.688 28.752 413.216C28.752 415.872 29.04 418.128 29.616 419.984C30.192 421.808 31.024 423.2 32.112 424.16C33.2 425.12 34.496 425.6 36 425.6ZM50.832 428V398.096H60.432C62.672 398.096 64.48 398.48 65.856 399.248C67.232 400.016 68.24 401.04 68.88 402.32C69.552 403.568 69.888 404.976 69.888 406.544C69.888 407.696 69.712 408.768 69.36 409.76C69.008 410.752 68.448 411.632 67.68 412.4C66.944 413.168 66 413.76 64.848 414.176C63.696 414.592 62.304 414.8 60.672 414.8H54.288V428H50.832ZM54.288 411.824H60.288C61.76 411.824 62.944 411.616 63.84 411.2C64.736 410.752 65.392 410.144 65.808 409.376C66.224 408.576 66.432 407.664 66.432 406.64C66.432 405.648 66.224 404.752 65.808 403.952C65.392 403.152 64.736 402.512 63.84 402.032C62.944 401.52 61.776 401.264 60.336 401.264H54.288V411.824ZM83.856 428.48C81.904 428.48 80.144 428.16 78.576 427.52C77.04 426.88 75.68 425.936 74.496 424.688L76.224 421.664L76.416 421.232L76.752 421.424C76.816 421.648 76.896 421.904 76.992 422.192C77.088 422.448 77.312 422.768 77.664 423.152C78.496 423.856 79.456 424.416 80.544 424.832C81.664 425.248 82.928 425.456 84.336 425.456C85.232 425.456 86.048 425.328 86.784 425.072C87.552 424.784 88.208 424.416 88.752 423.968C89.328 423.488 89.76 422.944 90.048 422.336C90.368 421.696 90.528 421.024 90.528 420.32C90.528 419.776 90.464 419.28 90.336 418.832C90.24 418.384 90.032 417.984 89.712 417.632C89.424 417.248 89.024 416.88 88.512 416.528C88 416.144 87.344 415.744 86.544 415.328C85.744 414.912 84.784 414.464 83.664 413.984C81.584 413.184 79.936 412.32 78.72 411.392C77.536 410.432 76.688 409.424 76.176 408.368C75.696 407.312 75.456 406.224 75.456 405.104C75.456 403.632 75.824 402.352 76.56 401.264C77.296 400.144 78.336 399.28 79.68 398.672C81.056 398.032 82.688 397.712 84.576 397.712C85.664 397.712 86.704 397.872 87.696 398.192C88.72 398.48 89.664 398.896 90.528 399.44C91.424 399.984 92.208 400.656 92.88 401.456L91.008 403.952L90.72 404.336L90.432 404.144C90.4 403.888 90.336 403.632 90.24 403.376C90.144 403.12 89.92 402.8 89.568 402.416C88.8 401.68 87.984 401.184 87.12 400.928C86.256 400.64 85.232 400.496 84.048 400.496C83.248 400.496 82.528 400.608 81.888 400.832C81.28 401.056 80.752 401.376 80.304 401.792C79.856 402.208 79.504 402.688 79.248 403.232C79.024 403.744 78.912 404.288 78.912 404.864C78.912 405.408 78.976 405.904 79.104 406.352C79.232 406.8 79.456 407.232 79.776 407.648C80.096 408.064 80.528 408.48 81.072 408.896C81.648 409.312 82.352 409.728 83.184 410.144C84.048 410.56 85.088 411.008 86.304 411.488C87.776 412.096 88.992 412.704 89.952 413.312C90.944 413.888 91.712 414.512 92.256 415.184C92.832 415.824 93.232 416.528 93.456 417.296C93.712 418.064 93.84 418.912 93.84 419.84C93.84 421.216 93.488 422.576 92.784 423.92C92.112 425.232 91.04 426.32 89.568 427.184C88.096 428.048 86.192 428.48 83.856 428.48ZM106.32 418.688L105.12 399.488C105.12 398.72 105.216 398.08 105.408 397.568C105.6 397.024 105.872 396.624 106.224 396.368C106.608 396.08 107.056 395.936 107.568 395.936C108.08 395.936 108.512 396.08 108.864 396.368C109.216 396.624 109.488 397.056 109.68 397.664C109.904 398.24 110.016 399.008 110.016 399.968L108.72 418.688H106.32ZM107.472 428.528C106.704 428.528 106.032 428.256 105.456 427.712C104.912 427.168 104.64 426.512 104.64 425.744C104.64 424.976 104.912 424.304 105.456 423.728C106.032 423.152 106.704 422.864 107.472 422.864C108.24 422.864 108.912 423.152 109.488 423.728C110.064 424.304 110.352 424.976 110.352 425.744C110.352 426.48 110.064 427.136 109.488 427.712C108.912 428.256 108.24 428.528 107.472 428.528ZM146.4 398.096H149.664L162.24 420.272V398.096H165.408H165.888V398.432C165.696 398.624 165.568 398.832 165.504 399.056C165.472 399.28 165.456 399.664 165.456 400.208V428H162.816L149.616 404.48V428H146.4V398.096ZM180 428.384C178.016 428.384 176.256 427.904 174.72 426.944C173.216 425.952 172.032 424.608 171.168 422.912C170.304 421.184 169.872 419.216 169.872 417.008C169.872 414.768 170.304 412.8 171.168 411.104C172.032 409.376 173.216 408.032 174.72 407.072C176.256 406.08 178.016 405.584 180 405.584C181.984 405.584 183.728 406.08 185.232 407.072C186.768 408.032 187.968 409.376 188.832 411.104C189.696 412.8 190.128 414.768 190.128 417.008C190.128 419.216 189.696 421.184 188.832 422.912C187.968 424.608 186.768 425.952 185.232 426.944C183.728 427.904 181.984 428.384 180 428.384ZM180 425.504C181.28 425.504 182.4 425.136 183.36 424.4C184.32 423.664 185.072 422.656 185.616 421.376C186.192 420.096 186.48 418.624 186.48 416.96C186.48 415.296 186.192 413.824 185.616 412.544C185.072 411.264 184.32 410.272 183.36 409.568C182.4 408.832 181.28 408.464 180 408.464C178.752 408.464 177.632 408.832 176.64 409.568C175.68 410.272 174.912 411.264 174.336 412.544C173.792 413.824 173.52 415.296 173.52 416.96C173.52 418.624 173.792 420.096 174.336 421.376C174.912 422.656 175.68 423.664 176.64 424.4C177.632 425.136 178.752 425.504 180 425.504ZM206.352 428.336C204.944 428.336 203.792 428.096 202.896 427.616C202 427.136 201.312 426.4 200.832 425.408C200.352 424.384 200.032 423.104 199.872 421.568C199.744 420.032 199.712 418.208 199.776 416.096L200.352 400.448L203.952 400.016L204.432 399.968L204.48 400.304C204.32 400.528 204.176 400.752 204.048 400.976C203.952 401.2 203.872 401.584 203.808 402.128L203.376 407.552L203.52 408.416L203.184 416.336C203.088 418.768 203.152 420.656 203.376 422C203.6 423.312 204 424.224 204.576 424.736C205.152 425.216 205.92 425.456 206.88 425.456C207.936 425.456 208.864 425.248 209.664 424.832C210.496 424.416 211.36 423.888 212.256 423.248L213.312 425.984C212.224 426.784 211.104 427.376 209.952 427.76C208.8 428.144 207.6 428.336 206.352 428.336ZM195.36 406.064H211.152V408.896H195.36V406.064ZM219.504 396.08H222.816H223.296V396.416C223.104 396.608 222.976 396.816 222.912 397.04C222.88 397.264 222.864 397.648 222.864 398.192V409.952C223.44 409.056 224.112 408.288 224.88 407.648C225.68 406.976 226.512 406.464 227.376 406.112C228.272 405.728 229.168 405.536 230.064 405.536C231.376 405.536 232.528 405.84 233.52 406.448C234.544 407.056 235.328 408.032 235.872 409.376C236.448 410.72 236.736 412.496 236.736 414.704V428H233.376V414.8C233.376 413.264 233.2 412.048 232.848 411.152C232.496 410.224 232.016 409.568 231.408 409.184C230.8 408.768 230.112 408.56 229.344 408.56C228.768 408.56 228.176 408.656 227.568 408.848C226.96 409.04 226.368 409.328 225.792 409.712C225.248 410.096 224.752 410.576 224.304 411.152C223.856 411.696 223.504 412.32 223.248 413.024C222.992 413.728 222.864 414.512 222.864 415.376V428H219.504V396.08ZM244.8 428V425.216H250.416V408.848H245.088V406.064H253.872V425.216H259.008V428H244.8ZM251.952 401.456C251.28 401.456 250.704 401.216 250.224 400.736C249.744 400.256 249.504 399.68 249.504 399.008C249.504 398.304 249.728 397.712 250.176 397.232C250.656 396.752 251.248 396.512 251.952 396.512C252.624 396.512 253.2 396.768 253.68 397.28C254.192 397.76 254.448 398.336 254.448 399.008C254.448 399.68 254.192 400.256 253.68 400.736C253.2 401.216 252.624 401.456 251.952 401.456ZM267.456 428V406.064H270.816V409.952C271.392 409.056 272.064 408.288 272.832 407.648C273.6 406.976 274.448 406.464 275.376 406.112C276.304 405.728 277.264 405.536 278.256 405.536C279.472 405.536 280.56 405.84 281.52 406.448C282.48 407.056 283.248 408.032 283.824 409.376C284.4 410.72 284.688 412.496 284.688 414.704V428H281.328V414.8C281.328 413.264 281.152 412.048 280.8 411.152C280.448 410.224 279.968 409.568 279.36 409.184C278.752 408.768 278.064 408.56 277.296 408.56C276.56 408.56 275.808 408.72 275.04 409.04C274.304 409.36 273.616 409.824 272.976 410.432C272.336 411.008 271.808 411.712 271.392 412.544C271.008 413.376 270.816 414.32 270.816 415.376V428H267.456ZM299.856 436.256C298.32 436.256 296.928 436.128 295.68 435.872C294.464 435.648 293.408 435.296 292.512 434.816C291.648 434.368 290.976 433.792 290.496 433.088C290.048 432.384 289.824 431.552 289.824 430.592C289.824 429.696 290.016 428.896 290.4 428.192C290.784 427.488 291.28 426.912 291.888 426.464C292.528 425.984 293.216 425.632 293.952 425.408L295.392 426.272C294.816 426.624 294.352 426.976 294 427.328C293.648 427.68 293.392 428.08 293.232 428.528C293.072 429.008 292.992 429.568 292.992 430.208C292.992 430.752 293.152 431.232 293.472 431.648C293.792 432.096 294.24 432.464 294.816 432.752C295.424 433.04 296.144 433.264 296.976 433.424C297.84 433.584 298.816 433.664 299.904 433.664C301.376 433.664 302.56 433.504 303.456 433.184C304.384 432.896 305.072 432.48 305.52 431.936C305.968 431.424 306.192 430.832 306.192 430.16C306.192 429.456 306.064 428.88 305.808 428.432C305.552 427.984 305.024 427.648 304.224 427.424C303.424 427.2 302.208 427.088 300.576 427.088C299.456 427.088 298.432 427.04 297.504 426.944C296.576 426.848 295.744 426.688 295.008 426.464C294.272 426.24 293.648 425.968 293.136 425.648C292.656 425.296 292.288 424.88 292.032 424.4C291.776 423.92 291.648 423.36 291.648 422.72C291.648 421.888 291.872 421.088 292.32 420.32C292.8 419.552 293.44 418.816 294.24 418.112L295.872 419.408C295.552 419.76 295.296 420.08 295.104 420.368C294.912 420.624 294.768 420.88 294.672 421.136C294.608 421.36 294.576 421.616 294.576 421.904C294.576 422.416 294.768 422.832 295.152 423.152C295.568 423.472 296.272 423.712 297.264 423.872C298.256 424 299.6 424.064 301.296 424.064C302.992 424.064 304.368 424.208 305.424 424.496C306.48 424.752 307.28 425.136 307.824 425.648C308.4 426.16 308.8 426.752 309.024 427.424C309.248 428.096 309.36 428.832 309.36 429.632C309.36 430.496 309.184 431.312 308.832 432.08C308.512 432.88 307.984 433.584 307.248 434.192C306.512 434.832 305.536 435.328 304.32 435.68C303.104 436.064 301.616 436.256 299.856 436.256ZM298.848 420.56C297.28 420.56 295.92 420.224 294.768 419.552C293.616 418.848 292.72 417.92 292.08 416.768C291.472 415.584 291.168 414.288 291.168 412.88C291.168 411.472 291.472 410.192 292.08 409.04C292.72 407.888 293.616 406.976 294.768 406.304C295.92 405.6 297.28 405.248 298.848 405.248C300.448 405.248 301.808 405.6 302.928 406.304C304.08 406.976 304.96 407.888 305.568 409.04C306.208 410.192 306.528 411.472 306.528 412.88C306.528 414.288 306.208 415.584 305.568 416.768C304.96 417.92 304.08 418.848 302.928 419.552C301.808 420.224 300.448 420.56 298.848 420.56ZM298.848 417.68C299.776 417.68 300.592 417.472 301.296 417.056C302.032 416.608 302.608 416.016 303.024 415.28C303.44 414.544 303.648 413.744 303.648 412.88C303.648 411.984 303.44 411.184 303.024 410.48C302.608 409.744 302.032 409.168 301.296 408.752C300.592 408.304 299.776 408.08 298.848 408.08C297.92 408.08 297.088 408.304 296.352 408.752C295.648 409.168 295.088 409.744 294.672 410.48C294.256 411.184 294.048 411.984 294.048 412.88C294.048 413.744 294.256 414.544 294.672 415.28C295.088 416.016 295.648 416.608 296.352 417.056C297.088 417.472 297.92 417.68 298.848 417.68ZM305.232 409.616L303.888 408.032C304.816 407.104 305.776 406.432 306.768 406.016C307.792 405.568 308.992 405.392 310.368 405.488L310.8 408.32C309.744 408.224 308.752 408.256 307.824 408.416C306.896 408.576 306.032 408.976 305.232 409.616ZM350.352 428.336C348.944 428.336 347.792 428.096 346.896 427.616C346 427.136 345.312 426.4 344.832 425.408C344.352 424.384 344.032 423.104 343.872 421.568C343.744 420.032 343.712 418.208 343.776 416.096L344.352 400.448L347.952 400.016L348.432 399.968L348.48 400.304C348.32 400.528 348.176 400.752 348.048 400.976C347.952 401.2 347.872 401.584 347.808 402.128L347.376 407.552L347.52 408.416L347.184 416.336C347.088 418.768 347.152 420.656 347.376 422C347.6 423.312 348 424.224 348.576 424.736C349.152 425.216 349.92 425.456 350.88 425.456C351.936 425.456 352.864 425.248 353.664 424.832C354.496 424.416 355.36 423.888 356.256 423.248L357.312 425.984C356.224 426.784 355.104 427.376 353.952 427.76C352.8 428.144 351.6 428.336 350.352 428.336ZM339.36 406.064H355.152V408.896H339.36V406.064ZM372 428.384C370.016 428.384 368.256 427.904 366.72 426.944C365.216 425.952 364.032 424.608 363.168 422.912C362.304 421.184 361.872 419.216 361.872 417.008C361.872 414.768 362.304 412.8 363.168 411.104C364.032 409.376 365.216 408.032 366.72 407.072C368.256 406.08 370.016 405.584 372 405.584C373.984 405.584 375.728 406.08 377.232 407.072C378.768 408.032 379.968 409.376 380.832 411.104C381.696 412.8 382.128 414.768 382.128 417.008C382.128 419.216 381.696 421.184 380.832 422.912C379.968 424.608 378.768 425.952 377.232 426.944C375.728 427.904 373.984 428.384 372 428.384ZM372 425.504C373.28 425.504 374.4 425.136 375.36 424.4C376.32 423.664 377.072 422.656 377.616 421.376C378.192 420.096 378.48 418.624 378.48 416.96C378.48 415.296 378.192 413.824 377.616 412.544C377.072 411.264 376.32 410.272 375.36 409.568C374.4 408.832 373.28 408.464 372 408.464C370.752 408.464 369.632 408.832 368.64 409.568C367.68 410.272 366.912 411.264 366.336 412.544C365.792 413.824 365.52 415.296 365.52 416.96C365.52 418.624 365.792 420.096 366.336 421.376C366.912 422.656 367.68 423.664 368.64 424.4C369.632 425.136 370.752 425.504 372 425.504ZM410.688 428V398.096H419.52C421.888 398.096 423.792 398.448 425.232 399.152C426.704 399.856 427.776 400.848 428.448 402.128C429.12 403.408 429.456 404.912 429.456 406.64C429.456 407.76 429.2 408.88 428.688 410C428.208 411.12 427.504 412.096 426.576 412.928C425.68 413.76 424.608 414.336 423.36 414.656L430.272 428H426.528L419.904 414.8H414.096V428H410.688ZM414.096 411.824H419.904C422.048 411.824 423.6 411.36 424.56 410.432C425.52 409.472 426 408.208 426 406.64C426 405.648 425.792 404.752 425.376 403.952C424.96 403.12 424.304 402.464 423.408 401.984C422.512 401.504 421.344 401.264 419.904 401.264H414.096V411.824ZM445.056 428.48C443.456 428.48 442 428.24 440.688 427.76C439.376 427.248 438.24 426.512 437.28 425.552C436.352 424.592 435.632 423.408 435.12 422C434.608 420.56 434.352 418.928 434.352 417.104C434.352 415.248 434.608 413.6 435.12 412.16C435.664 410.72 436.384 409.52 437.28 408.56C438.208 407.568 439.28 406.816 440.496 406.304C441.744 405.792 443.056 405.536 444.432 405.536C445.68 405.536 446.848 405.744 447.936 406.16C449.024 406.576 449.968 407.216 450.768 408.08C451.568 408.912 452.192 409.984 452.64 411.296C453.12 412.608 453.36 414.16 453.36 415.952C453.36 416.208 453.344 416.48 453.312 416.768C453.312 417.024 453.296 417.28 453.264 417.536H437.664C437.728 418.944 437.968 420.176 438.384 421.232C438.8 422.256 439.344 423.104 440.016 423.776C440.688 424.416 441.456 424.896 442.32 425.216C443.216 425.536 444.16 425.696 445.152 425.696C445.92 425.696 446.64 425.616 447.312 425.456C447.984 425.264 448.608 424.992 449.184 424.64C449.792 424.256 450.336 423.792 450.816 423.248L452.736 425.12C452.128 425.856 451.424 426.48 450.624 426.992C449.856 427.504 449.008 427.872 448.08 428.096C447.152 428.352 446.144 428.48 445.056 428.48ZM437.808 414.848H449.856C449.856 413.824 449.712 412.912 449.424 412.112C449.168 411.28 448.784 410.576 448.272 410C447.792 409.392 447.2 408.944 446.496 408.656C445.824 408.336 445.056 408.176 444.192 408.176C443.424 408.176 442.688 408.304 441.984 408.56C441.312 408.816 440.688 409.232 440.112 409.808C439.536 410.352 439.04 411.04 438.624 411.872C438.24 412.704 437.968 413.696 437.808 414.848ZM466.128 428.528C463.632 428.528 461.712 427.968 460.368 426.848C459.024 425.696 458.352 424.24 458.352 422.48C458.352 421.296 458.64 420.24 459.216 419.312C459.792 418.352 460.576 417.552 461.568 416.912C462.592 416.24 463.776 415.728 465.12 415.376C466.464 415.024 467.888 414.848 469.392 414.848C469.936 414.848 470.48 414.864 471.024 414.896C471.6 414.896 472.192 414.928 472.8 414.992C473.44 415.024 474.096 415.088 474.768 415.184L474.864 417.824C474.288 417.728 473.696 417.664 473.088 417.632C472.512 417.568 471.936 417.52 471.36 417.488C470.784 417.456 470.224 417.44 469.68 417.44C468.528 417.44 467.472 417.536 466.512 417.728C465.552 417.92 464.72 418.208 464.016 418.592C463.312 418.976 462.768 419.472 462.384 420.08C462 420.688 461.808 421.424 461.808 422.288C461.808 422.96 461.92 423.536 462.144 424.016C462.4 424.464 462.736 424.832 463.152 425.12C463.568 425.376 464.048 425.568 464.592 425.696C465.168 425.824 465.792 425.888 466.464 425.888C467.712 425.888 468.816 425.696 469.776 425.312C470.768 424.896 471.6 424.304 472.272 423.536C472.976 422.768 473.504 421.824 473.856 420.704C474.208 419.584 474.384 418.304 474.384 416.864C474.384 414.688 474.128 412.992 473.616 411.776C473.104 410.56 472.336 409.696 471.312 409.184C470.32 408.672 469.04 408.416 467.472 408.416C466.416 408.416 465.376 408.624 464.352 409.04C463.328 409.424 462.4 410.032 461.568 410.864L459.888 408.656C460.912 407.632 462.096 406.864 463.44 406.352C464.784 405.84 466.208 405.584 467.712 405.584C469.152 405.584 470.464 405.76 471.648 406.112C472.832 406.464 473.84 407.056 474.672 407.888C475.536 408.688 476.192 409.776 476.64 411.152C477.12 412.528 477.36 414.256 477.36 416.336V428H473.616V424.64C473.2 425.44 472.688 426.096 472.08 426.608C471.504 427.12 470.88 427.52 470.208 427.808C469.536 428.064 468.848 428.24 468.144 428.336C467.44 428.464 466.768 428.528 466.128 428.528ZM491.232 428.48C490.112 428.48 489.008 428.24 487.92 427.76C486.864 427.28 485.888 426.56 484.992 425.6C484.128 424.64 483.44 423.424 482.928 421.952C482.416 420.48 482.16 418.768 482.16 416.816C482.16 414.8 482.432 413.088 482.976 411.68C483.52 410.24 484.24 409.072 485.136 408.176C486.032 407.248 487.024 406.576 488.112 406.16C489.2 405.712 490.304 405.488 491.424 405.488C492.448 405.488 493.36 405.648 494.16 405.968C494.992 406.288 495.712 406.736 496.32 407.312C496.96 407.856 497.456 408.512 497.808 409.28V396.08H500.976H501.456V396.416C501.264 396.608 501.136 396.816 501.072 397.04C501.04 397.264 501.024 397.648 501.024 398.192L501.072 424.592C501.072 425.168 501.088 425.744 501.12 426.32C501.184 426.864 501.328 427.424 501.552 428H498.144C497.984 427.616 497.872 427.232 497.808 426.848C497.744 426.464 497.696 426.096 497.664 425.744C497.664 425.36 497.664 424.976 497.664 424.592C497.216 425.36 496.672 426.048 496.032 426.656C495.392 427.232 494.672 427.68 493.872 428C493.072 428.32 492.192 428.48 491.232 428.48ZM491.76 425.456C492.816 425.456 493.712 425.248 494.448 424.832C495.184 424.384 495.776 423.776 496.224 423.008C496.672 422.208 496.992 421.296 497.184 420.272C497.408 419.216 497.52 418.096 497.52 416.912C497.52 415.28 497.312 413.824 496.896 412.544C496.48 411.232 495.824 410.208 494.928 409.472C494.032 408.704 492.88 408.32 491.472 408.32C490.512 408.32 489.648 408.512 488.88 408.896C488.144 409.248 487.52 409.776 487.008 410.48C486.528 411.184 486.16 412.032 485.904 413.024C485.648 413.984 485.52 415.072 485.52 416.288C485.52 418.112 485.76 419.712 486.24 421.088C486.72 422.464 487.424 423.536 488.352 424.304C489.28 425.072 490.416 425.456 491.76 425.456ZM515.424 428.528C514.656 428.528 514 428.256 513.456 427.712C512.912 427.168 512.64 426.528 512.64 425.792C512.64 425.056 512.912 424.416 513.456 423.872C514 423.328 514.656 423.056 515.424 423.056C516.16 423.056 516.8 423.328 517.344 423.872C517.888 424.416 518.16 425.056 518.16 425.792C518.16 426.528 517.888 427.168 517.344 427.712C516.8 428.256 516.16 428.528 515.424 428.528Z" fill="black"/>
</svg>
